<svg width="281" height="230" viewBox="0 0 281 230" fill="none" xmlns="http://www.w3.org/2000/svg">
<path d="M203.391 228.551C181.881 228.218 164.948 229.687 138.73 229.48C112.513 229.272 108.586 228.493 78.5604 228.668C56.0336 228.8 33.497 228.532 18 228.526C12.2851 228.532 7.84704 225.801 5.29666 223.225C1.14263 218.922 0.384837 214.686 0.448017 211C0.637201 205.907 0.931049 200.837 0.802557 189.497C0.587483 170.513 0.713898 159.008 1.02869 142.405C1.34349 125.802 1.61224 74.7937 1.22553 56.2458C0.960574 43.5374 1.19214 29.6052 1.41541 18C1.49172 12.4053 4.47871 7.83512 7.67287 5.34814C10.8668 2.82188 14.1248 2.07648 16.5071 1.92506C17.5305 1.86671 17.999 1.95425 18 2.01127C18 2.01131 18 2.01135 18 2.01139C17.9983 2.09502 17.2747 2.13391 15.9983 2.29907C10.6812 2.68614 2.29471 8.36546 2.53342 18C2.56176 19.2465 2.59207 20.5183 2.62446 21.8131C3.14477 42.6153 2.5698 44.8885 2.83716 72.9788C3.10453 101.069 3.63904 117.945 3.2934 150.997C3.02914 176.268 3.81254 186.655 3.82956 211C3.60619 217.035 8.67756 225.138 18 225.389C18.7107 225.4 19.4307 225.413 20.1603 225.426C66.8141 226.245 71.7243 224.733 118.216 224.531C164.709 224.33 223.396 225.165 251.422 225.096C254.812 225.087 258.342 225.077 262 225.067C268.934 225.282 276.158 218.978 275.997 211C275.947 189.769 275.926 165.942 276.05 141.313C276.235 104.375 275.813 59.3852 276.039 18C276.062 15.2449 275.26 12.5239 273.779 10.2428C271.388 6.47927 266.893 3.77689 262 3.7717C220.104 3.44033 168.652 3.05747 143.309 2.79078C114.666 2.48934 107.684 2.42134 80.1136 2.60553C64.2656 2.71141 42.4334 2.61161 23.9923 2.22223C14.7116 2.02627 16.8146 1.75342 26.156 1.62287C39.8161 1.43197 51.0296 1.5595 58.0681 1.21851C72.1324 0.537024 78.1099 0.275595 95.8651 0.672246C113.619 1.06885 121.985 0.167504 132.335 0.271246C142.685 0.375039 142.515 0.90669 195.141 0.497076C223.595 0.275592 245.099 0.143307 262 0.052968C273.378 0.0172384 280.355 10.0692 280.071 18C280.086 21.3616 280.101 24.4834 280.115 27.4124C280.214 47.3417 279.752 88.9554 279.919 121.435C280.032 143.45 279.998 180.878 280.049 211C280.21 221.903 270.162 229.486 262 229.128C258.091 229.149 254.579 229.175 251.571 229.205C224.954 229.478 224.9 228.883 203.391 228.551Z" fill="#DE2408"/>
</svg>
