<svg width="27" height="23" viewBox="0 0 27 23" fill="none" xmlns="http://www.w3.org/2000/svg">
<g filter="url(#filter0_d_8125_1127)">
<path d="M12.0966 4V7.83523C12.0966 9 11.8835 10.2429 11.4574 11.5639C11.0455 12.8707 10.4347 14.142 9.625 15.3778C8.82955 16.5994 7.86364 17.6648 6.72727 18.5739L4 16.358C4.89489 15.0795 5.66903 13.7514 6.32244 12.3736C6.99006 10.9815 7.32386 9.49716 7.32386 7.92046V4H12.0966ZM23.0057 4V7.83523C23.0057 9 22.7926 10.2429 22.3665 11.5639C21.9545 12.8707 21.3438 14.142 20.5341 15.3778C19.7386 16.5994 18.7727 17.6648 17.6364 18.5739L14.9091 16.358C15.804 15.0795 16.5781 13.7514 17.2315 12.3736C17.8991 10.9815 18.233 9.49716 18.233 7.92046V4H23.0057Z" fill="#E05259"/>
</g>
<defs>
<filter id="filter0_d_8125_1127" x="0" y="0" width="27.0059" height="22.5737" filterUnits="userSpaceOnUse" color-interpolation-filters="sRGB">
<feFlood flood-opacity="0" result="BackgroundImageFix"/>
<feColorMatrix in="SourceAlpha" type="matrix" values="0 0 0 0 0 0 0 0 0 0 0 0 0 0 0 0 0 0 127 0" result="hardAlpha"/>
<feOffset/>
<feGaussianBlur stdDeviation="2"/>
<feComposite in2="hardAlpha" operator="out"/>
<feColorMatrix type="matrix" values="0 0 0 0 0.878431 0 0 0 0 0.321569 0 0 0 0 0.34902 0 0 0 1 0"/>
<feBlend mode="normal" in2="BackgroundImageFix" result="effect1_dropShadow_8125_1127"/>
<feBlend mode="normal" in="SourceGraphic" in2="effect1_dropShadow_8125_1127" result="shape"/>
</filter>
</defs>
</svg>
