<svg width="1512" height="840" viewBox="0 0 1512 840" fill="none" xmlns="http://www.w3.org/2000/svg">
<path d="M-2 0H1513V738.5H-2V0Z" fill="url(#paint0_linear_7495_2395)"/>
<path d="M300.583 567.87C132.256 427.548 30.0583 379.209 0 372.58V738.5H1512V351.5C1479.57 359.137 1435.34 401.88 1417.28 422.298C1366.11 427.707 1238.68 523.456 1181.36 570.654C1018.63 570.654 904.777 632.436 868.194 663.327C813.111 670.964 721.049 629.917 681.903 608.439L618.641 596.109C573.344 568.745 536.155 571.184 523.223 575.825L444.233 567.87C426.897 582.189 379.689 579.139 358.252 575.825L300.583 567.87Z" fill="#800000"/>
<rect x="115" y="394.5" width="104" height="212" fill="url(#paint1_linear_7495_2395)"/>
<rect x="261" y="528.5" width="89" height="107" fill="url(#paint2_linear_7495_2395)"/>
<rect x="400" y="581.5" width="123" height="83" fill="url(#paint3_linear_7495_2395)"/>
<rect x="733" y="550.5" width="62" height="96" fill="url(#paint4_linear_7495_2395)"/>
<rect x="818" y="522.5" width="40" height="124" fill="url(#paint5_linear_7495_2395)"/>
<rect x="887" y="522.5" width="24" height="140" fill="url(#paint6_linear_7495_2395)"/>
<rect x="928" y="494.5" width="44" height="174" fill="url(#paint7_linear_7495_2395)"/>
<rect x="1013" y="448.5" width="51" height="220" fill="url(#paint8_linear_7495_2395)"/>
<rect x="1084" y="460.5" width="23" height="202" fill="url(#paint9_linear_7495_2395)"/>
<rect x="1236" y="393.5" width="57" height="174" fill="url(#paint10_linear_7495_2395)"/>
<rect x="1149" y="440.5" width="46" height="222" fill="url(#paint11_linear_7495_2395)"/>
<path d="M609.233 606.407C607.555 611.72 597.582 648.933 592.805 666.876H649.079V493.159L646.633 542.792C638.244 554.536 628.457 577.046 624.612 586.833H617.971L613.427 606.407H609.233Z" fill="#5C0000" stroke="#630F23" stroke-width="0.699063"/>
<path d="M688.926 606.057C690.603 611.37 700.577 648.584 705.354 666.526H649.079V492.809L651.526 542.443C659.914 554.187 669.701 576.697 673.546 586.483H680.187L684.731 606.057H688.926Z" fill="#5C0000" stroke="#630F23" stroke-width="0.699063"/>
<path d="M94.4608 519.846C49.3995 480.375 12.7114 463.743 0 460.36V738.544H1512.07V421.169C1495.84 423.969 1451.66 462.926 1431.61 482.055L1324.9 545.74C1290.15 571.634 1230.44 608.025 1226.24 617.823C1222.04 627.62 1199.65 635.552 1195.8 631.469L1137.38 635.668H1112.89H1077.9H1061.11C1043.62 643.133 1002.33 657.783 977.145 656.663C951.955 655.544 925.133 651.065 914.871 648.965H879.885H867.64H810.614H800.818C764.153 658.483 724.433 661.562 709.156 661.912H593.704H530.38L391.138 646.166L360.351 639.168L249.447 617.473V606.975L229.155 598.927L94.4608 579.332V519.846Z" fill="#5C0000"/>
<path d="M166.377 126.515V590.75L165.976 590.688L101.661 580.901L101.607 580.894L101.558 580.868L88.9746 574.577L88.7754 574.478L88.7812 574.255L94.0244 385.158L94.0352 384.781L94.4102 384.82C98.2013 385.216 103.798 383.843 108.179 378.369C112.563 372.891 115.763 363.262 114.647 347.093L114.622 346.72H122.157C123.822 344.364 126.073 337.849 122.023 329.749L121.771 329.243H131.219C135.287 322.007 141.373 309.373 146.526 294.768C151.723 280.04 155.963 263.332 156.241 248.146V248.136L156.242 248.126C156.476 244.97 157.037 239.751 157.959 234.339C158.876 228.96 160.154 223.363 161.836 219.412L165.679 126.5L166.377 126.515ZM117.094 574.264H128.278V563.079H117.094V574.264ZM133.871 574.264H145.056V563.079H133.871V574.264ZM150.648 563.079V574.264H161.833V563.079H150.648ZM117.094 556.089H128.278V544.903H117.094V556.089ZM133.871 556.089H145.056V544.903H133.871V556.089ZM150.648 556.089H161.833V544.903H150.648V556.089ZM117.094 537.913H128.278V526.728H117.094V537.913ZM133.871 537.913H145.056V526.728H133.871V537.913ZM150.648 537.913H161.833V526.728H150.648V537.913ZM117.094 519.737H128.278V508.552H117.094V519.737ZM133.871 519.737H145.056V508.552H133.871V519.737ZM150.648 519.737H161.833V508.552H150.648V519.737ZM117.094 501.562H128.278V490.377H117.094V501.562ZM133.871 501.562H145.056V490.377H133.871V501.562ZM150.648 501.562H161.833V490.377H150.648V501.562ZM117.094 483.386H128.278V472.201H117.094V483.386ZM133.871 483.386H145.056V472.201H133.871V483.386ZM150.648 483.386H161.833V472.201H150.648V483.386ZM117.094 465.21H128.278V454.025H117.094V465.21ZM133.871 465.21H145.056V454.025H133.871V465.21ZM150.648 465.21H161.833V454.025H150.648V465.21ZM117.094 447.034H128.278V435.85H117.094V447.034ZM133.871 447.034H145.056V435.85H133.871V447.034ZM150.648 447.034H161.833V435.85H150.648V447.034ZM117.094 428.859H128.278V417.674H117.094V428.859ZM133.871 428.859H145.056V417.674H133.871V428.859ZM150.648 428.859H161.833V417.674H150.648V428.859ZM117.094 410.684H128.278V399.498H117.094V410.684ZM133.871 410.684H145.056V399.498H133.871V410.684ZM150.648 410.684H161.833V399.498H150.648V410.684Z" fill="#5C0000"/>
<path d="M166.027 126.879V590.977L166.288 591.045L237.942 609.905L238.381 610.021V385.145L237.995 385.185C234.204 385.581 228.608 384.208 224.227 378.733C219.842 373.255 216.643 363.626 217.758 347.457L217.783 347.084H210.248C208.583 344.729 206.332 338.213 210.382 330.113L210.635 329.607H201.187C197.118 322.371 191.032 309.737 185.879 295.132C180.683 280.404 176.443 263.696 176.164 248.51V248.5L176.163 248.49C175.929 245.334 175.369 240.115 174.446 234.703C173.53 229.326 172.251 223.73 170.569 219.779L166.727 126.864L166.027 126.879ZM215.312 574.629H204.128V563.443H215.312V574.629ZM198.535 574.629H187.35V563.443H198.535V574.629ZM181.758 563.443V574.628H170.573V563.443H181.758ZM215.312 556.453H204.128V545.268H215.312V556.453ZM198.535 556.453H187.35V545.268H198.535V556.453ZM181.758 556.453H170.573V545.269H181.758V556.453ZM215.312 538.277H204.128V527.092H215.312V538.277ZM198.535 538.277H187.35V527.092H198.535V538.277ZM181.758 538.277H170.573V527.093H181.758V538.277ZM215.312 520.102H204.128V508.917H215.312V520.102ZM198.535 520.102H187.35V508.917H198.535V520.102ZM181.758 520.102H170.573V508.917H181.758V520.102ZM215.312 501.926H204.128V490.741H215.312V501.926ZM198.535 501.926H187.35V490.741H198.535V501.926ZM181.758 501.926H170.573V490.741H181.758V501.926ZM215.312 483.75H204.128V472.565H215.312V483.75ZM198.535 483.75H187.35V472.565H198.535V483.75ZM181.758 483.75H170.573V472.565H181.758V483.75ZM215.312 465.574H204.128V454.39H215.312V465.574ZM198.535 465.574H187.35V454.39H198.535V465.574ZM181.758 465.574H170.573V454.39H181.758V465.574ZM215.312 447.399H204.128V436.214H215.312V447.399ZM198.535 447.399H187.35V436.214H198.535V447.399ZM181.758 447.398H170.573V436.214H181.758V447.398ZM215.312 429.224H204.128V418.038H215.312V429.224ZM198.535 429.224H187.35V418.038H198.535V429.224ZM181.758 429.224H170.573V418.039H181.758V429.224ZM215.312 411.048H204.128V399.863H215.312V411.048ZM198.535 411.048H187.35V399.862H198.535V411.048ZM181.758 411.048H170.573V399.863H181.758V411.048Z" fill="#5C0000"/>
<path d="M358.619 638.913C288.165 626.096 108.899 536.881 87.0332 513.082L87.3827 579.966L389.727 682.604L358.619 638.913Z" fill="#5C0000" stroke="#630F23" stroke-width="0.699063"/>
<path d="M304.584 351.299V635.796L304.213 635.774L249.545 632.426L249.217 632.407V516.07H266.671C266.259 510.322 266.174 501.202 267.229 492.021C268.299 482.701 270.552 473.252 274.877 467.22V459.542H280.571C282.622 454.514 285.828 446.841 288.899 439.882C290.457 436.352 291.982 433.003 293.304 430.275C294.589 427.622 295.696 425.532 296.458 424.439C296.739 421.758 298.592 403.619 303.887 351.264L304.584 351.299ZM272.996 622.409H283.409V545.055H272.996V622.409ZM290.104 545.055V622.409H300.517V545.055H290.104Z" fill="#5C0000"/>
<path d="M304.256 351.709V636.095L304.505 636.169L359.174 652.495L359.623 652.629V516.479H342.169C342.581 510.732 342.666 501.612 341.611 492.431C340.54 483.11 338.288 473.662 333.963 467.63V459.952H328.269C326.218 454.924 323.012 447.251 319.94 440.292C318.382 436.762 316.858 433.413 315.536 430.685C314.251 428.031 313.144 425.942 312.382 424.849C312.101 422.168 310.247 404.029 304.953 351.674L304.256 351.709ZM335.844 622.818H325.431V545.465H335.844V622.818ZM318.736 545.465V622.818H308.323V545.465H318.736Z" fill="#5C0000"/>
<path d="M462.114 592.859H457.261V601.87H462.114V608.628H457.261V617.639H462.114V624.398H457.261V633.41H462.114V640.167H457.261V649.179H462.114V662.294H392.704V591.331H379.613L380.003 590.78L404.408 556.236L404.513 556.088H462.114V592.859ZM427.224 649.179H436.235V640.167H427.224V649.179ZM442.241 649.179H451.253V640.167H442.241V649.179ZM412.204 649.178H421.215V640.167H412.204V649.178ZM427.224 633.41H436.235V624.398H427.224V633.41ZM442.241 633.41H451.253V624.398H442.241V633.41ZM412.204 633.409H421.215V624.398H412.204V633.409ZM412.204 617.639H421.215V608.628H412.204V617.639ZM427.224 617.639H436.235V608.628H427.224V617.639ZM442.241 617.639H451.253V608.628H442.241V617.639ZM412.204 601.87H421.216V592.859H412.204V601.87ZM427.224 601.87H436.235V592.859H427.224V601.87ZM442.241 601.87H451.253V592.859H442.241V601.87Z" fill="#5C0000"/>
<path d="M461.792 592.859H466.646V601.87H461.792V608.628H466.646V617.639H461.792V624.398H466.646V633.41H461.792V640.167H466.646V649.179H461.792V662.294H531.202V591.331H544.293L543.903 590.78L519.498 556.236L519.394 556.088H461.792V592.859ZM496.683 649.179H487.671V640.167H496.683V649.179ZM481.665 649.179H472.653V640.167H481.665V649.179ZM511.702 649.178H502.69V640.167H511.702V649.178ZM496.683 633.41H487.671V624.398H496.683V633.41ZM481.665 633.41H472.653V624.398H481.665V633.41ZM511.702 633.409H502.69V624.398H511.702V633.409ZM511.702 617.639H502.69V608.628H511.702V617.639ZM496.683 617.639H487.671V608.628H496.683V617.639ZM481.665 617.639H472.653V608.628H481.665V617.639ZM511.702 601.87H502.69V592.859H511.702V601.87ZM496.683 601.87H487.671V592.859H496.683V601.87ZM481.665 601.87H472.653V592.859H481.665V601.87Z" fill="#5C0000"/>
<path d="M763.026 661.298H724.578V542.133L724.901 542.108C729.396 541.763 740.791 539.262 750.231 532.043L750.325 531.971H763.026V661.298ZM736.463 636.48H746.949V625.994H736.463V636.48ZM750.443 636.48H760.93V625.995H750.443V636.48ZM736.463 622.499H746.949V612.014H736.463V622.499ZM750.443 622.499H760.93V612.014H750.443V622.499ZM750.443 608.519H760.93V598.032H750.443V608.519ZM736.463 608.518H746.949V598.032H736.463V608.518ZM736.463 594.537H746.949V584.051H736.463V594.537ZM750.443 594.537H760.93V584.051H750.443V594.537ZM736.463 580.556H746.949V570.069H736.463V580.556ZM750.443 570.07V580.556H760.93V570.07H750.443ZM736.463 566.574H746.949V556.089H736.463V566.574ZM750.443 566.574H760.93V556.089H750.443V566.574Z" fill="#5C0000"/>
<path d="M763.026 661.647H801.475V542.482L801.151 542.458C796.656 542.112 785.262 539.612 775.821 532.393L775.728 532.32H763.026V661.647ZM789.59 636.83H779.104V626.345H789.59V636.83ZM775.609 636.83H765.123V626.345H775.609V636.83ZM775.609 622.85H765.123V612.363H775.609V622.85ZM789.59 622.849H779.104V612.363H789.59V622.849ZM789.59 608.868H779.104V598.382H789.59V608.868ZM775.609 608.868H765.123V598.382H775.609V608.868ZM789.59 594.887H779.104V584.4H789.59V594.887ZM775.609 594.887H765.123V584.4H775.609V594.887ZM789.59 580.905H779.104V570.419H789.59V580.905ZM775.609 570.42V580.905H765.123V570.42H775.609ZM789.59 566.924H779.104V556.438H789.59V566.924ZM775.609 566.924H765.123V556.438H775.609V566.924Z" fill="#5C0000"/>
<path d="M823.784 504.445C827.768 502.823 832.406 501.694 836.824 502.264L837.129 502.304V649.414H809.166V512.048H814.409V509.78L814.543 509.676C816.431 508.201 819.797 506.069 823.784 504.445ZM823.146 630.189H833.633V607.819H823.146V630.189ZM823.146 591.042V602.926H833.633V591.042H823.146ZM823.146 586.148H833.633V574.265H823.146V586.148ZM823.146 569.371H833.633V557.487H823.146V569.371ZM823.146 552.594H833.633V540.709H823.146V552.594ZM823.146 535.816H833.633V523.932H823.146V535.816Z" fill="#5C0000"/>
<path d="M850.474 504.592C846.49 502.97 841.852 501.841 837.434 502.411L837.129 502.451V649.561H865.092V512.195H859.849V509.927L859.715 509.823C857.827 508.348 854.46 506.216 850.474 504.592ZM851.111 630.336H840.625V607.966H851.111V630.336ZM851.111 591.189V603.073H840.625V591.189H851.111ZM851.111 586.295H840.625V574.412H851.111V586.295ZM851.111 569.518H840.625V557.634H851.111V569.518ZM851.111 552.741H840.625V540.857H851.111V552.741ZM851.111 535.963H840.625V524.079H851.111V535.963Z" fill="#5C0000"/>
<path d="M897.948 409.271V650.098H879.422L879.423 649.747C879.481 621.548 880.181 578.934 882.089 542.738C883.043 524.641 884.299 508.141 885.931 495.847C886.746 489.701 887.657 484.596 888.673 480.863C889.181 478.998 889.718 477.463 890.289 476.309C890.81 475.256 891.385 474.47 892.033 474.065C892.557 470.448 893.33 464.811 893.975 459.439C894.631 453.976 895.151 448.813 895.151 446.321V445.972H895.864L897.249 409.258L897.948 409.271ZM888.511 642.408H894.803V631.922H888.511V642.408ZM888.511 627.728H894.803V617.242H888.511V627.728ZM888.511 613.048H894.803V602.562H888.511V613.048ZM888.511 588.58V599.066H894.803V588.58H888.511ZM889.909 583.687H894.803V575.298H889.909V583.687ZM889.909 570.404H894.803V562.016H889.909V570.404ZM889.909 557.122H894.803V548.733H889.909V557.122ZM889.909 543.841H894.803V535.452H889.909V543.841ZM889.909 531.956H894.803V523.567H889.909V531.956Z" fill="#5C0000"/>
<path d="M897.601 408.935V649.762H916.127L916.126 649.412C916.068 621.213 915.368 578.599 913.46 542.403C912.506 524.306 911.249 507.805 909.618 495.511C908.803 489.366 907.892 484.26 906.876 480.528C906.368 478.663 905.831 477.127 905.26 475.973C904.738 474.92 904.164 474.134 903.516 473.73C902.992 470.112 902.219 464.475 901.574 459.104C900.918 453.641 900.398 448.478 900.397 445.986V445.636H899.685L898.3 408.921L897.601 408.935ZM907.038 642.072H900.746V631.585H907.038V642.072ZM907.038 627.391H900.746V616.906H907.038V627.391ZM907.038 612.711H900.746V602.225H907.038V612.711ZM907.038 588.244V598.73H900.746V588.244H907.038ZM905.64 583.35H900.746V574.961H905.64V583.35ZM905.64 570.069H900.746V561.68H905.64V570.069ZM905.64 556.787H900.746V548.398H905.64V556.787ZM905.64 543.504H900.746V535.116H905.64V543.504ZM905.64 531.62H900.746V523.231H905.64V531.62Z" fill="#5C0000"/>
<path d="M951.04 506.765H946.652V522.954H951.04V529.289H946.652V545.479H951.04V552.518H946.652V568.707H951.04V575.746H946.652V591.936H951.04V598.975H946.652V615.164H951.04V622.203H946.652V638.393H951.04V660.915H922.064V440.719L922.279 440.629L928.067 438.201C929.154 436.777 931.245 432.964 931.245 428.633V428.45L931.396 428.346C933.464 426.914 937.705 420.908 937.121 408.589L937.104 408.223H951.04V506.765ZM936.369 638.393H943.714V622.203H936.369V638.393ZM936.369 615.164H943.714V598.975H936.369V615.164ZM936.369 591.936H943.714V575.746H936.369V591.936ZM936.369 568.707H943.714V552.518H936.369V568.707ZM936.369 545.479H943.714V529.289H936.369V545.479ZM936.369 522.954H943.714V506.765H936.369V522.954Z" fill="#5C0000"/>
<path d="M950.73 506.631H954.973V522.913H950.73V529.285H954.973V545.567H950.73V552.646H954.973V568.929H950.73V576.009H954.973V592.291H950.73V599.371H954.973V615.653H950.73V622.733H954.973V639.016H950.73V661.665H978.686V440.21L978.476 440.118L972.901 437.679C971.855 436.246 969.836 432.411 969.836 428.05V427.871L969.691 427.766C968.704 427.053 967.18 425.192 965.974 421.937C964.771 418.691 963.891 414.077 964.172 407.889L964.188 407.523H950.73V506.631ZM964.885 639.016H957.806V622.732H964.885V639.016ZM964.885 615.653H957.806V599.371H964.885V615.653ZM964.885 592.291H957.806V576.009H964.885V592.291ZM964.885 568.93H957.806V552.646H964.885V568.93ZM964.885 545.567H957.806V529.284H964.885V545.567ZM964.885 522.913H957.806V506.631H964.885V522.913Z" fill="#5C0000"/>
<path d="M1030.07 299.529C1030.13 305.178 1030.29 313.598 1030.57 320.5C1030.71 323.951 1030.88 327.017 1031.09 329.165C1031.19 330.241 1031.3 331.075 1031.42 331.607C1031.46 331.809 1031.5 331.95 1031.54 332.04H1037.76V653.958H1007V423.966H1012.94V404.042H1022.04C1022.51 393.03 1023.29 376.53 1024.13 362.384C1024.55 355.24 1024.99 348.693 1025.41 343.757C1025.62 341.29 1025.82 339.22 1026.02 337.679C1026.12 336.909 1026.21 336.267 1026.31 335.77C1026.4 335.288 1026.5 334.903 1026.61 334.679C1026.76 334.379 1026.92 333.777 1027.09 332.887C1027.25 332.011 1027.4 330.893 1027.55 329.59C1027.85 326.986 1028.13 323.661 1028.37 320.088C1028.85 312.943 1029.2 304.82 1029.37 299.521L1030.07 299.529ZM1018.19 607.121H1024.48V598.732H1018.19V607.121ZM1028.67 598.732V607.121H1034.96V598.732H1028.67ZM1018.19 593.139H1024.48V584.75H1018.19V593.139ZM1028.67 593.139H1034.96V584.75H1028.67V593.139ZM1018.19 579.857H1024.48V571.468H1018.19V579.857ZM1028.67 579.857H1034.96V571.468H1028.67V579.857ZM1018.19 565.875H1024.48V557.487H1018.19V565.875ZM1028.67 565.875H1034.96V557.487H1028.67V565.875ZM1018.19 544.205H1024.48V535.816H1018.19V544.205ZM1028.67 544.205H1034.96V535.816H1028.67V544.205ZM1018.19 530.922H1024.48V522.534H1018.19V530.922ZM1028.67 530.922H1034.96V522.534H1028.67V530.922ZM1018.19 516.941H1024.48V508.552H1018.19V516.941ZM1028.67 516.941H1034.96V508.552H1028.67V516.941ZM1018.19 502.96H1024.48V494.571H1018.19V502.96ZM1028.67 502.96H1034.96V494.572H1028.67V502.96ZM1018.19 488.979H1024.48V480.59H1018.19V488.979ZM1028.67 488.979H1034.96V480.59H1028.67V488.979ZM1018.19 474.998H1024.48V466.609H1018.19V474.998ZM1028.67 474.998H1034.96V466.609H1028.67V474.998ZM1018.19 461.016H1024.48V452.627H1018.19V461.016ZM1028.67 461.016H1034.96V452.627H1028.67V461.016Z" fill="#5C0000"/>
<path d="M1045.45 299.541C1045.39 305.189 1045.23 313.61 1044.95 320.511C1044.81 323.963 1044.64 327.028 1044.43 329.176C1044.33 330.253 1044.22 331.086 1044.1 331.619C1044.06 331.821 1044.01 331.962 1043.98 332.051H1037.76V653.969H1068.52V423.978H1062.58V404.054H1053.47C1053 393.041 1052.23 376.542 1051.39 362.396C1050.97 355.252 1050.53 348.705 1050.11 343.769C1049.9 341.301 1049.7 339.232 1049.5 337.691C1049.4 336.921 1049.3 336.278 1049.21 335.782C1049.12 335.299 1049.02 334.915 1048.91 334.691C1048.76 334.391 1048.59 333.789 1048.43 332.899C1048.27 332.023 1048.11 330.904 1047.96 329.602C1047.66 326.998 1047.39 323.673 1047.15 320.1C1046.67 312.955 1046.32 304.831 1046.15 299.533L1045.45 299.541ZM1057.33 607.132H1051.04V598.744H1057.33V607.132ZM1046.85 598.744V607.132H1040.55V598.744H1046.85ZM1057.33 593.151H1051.04V584.762H1057.33V593.151ZM1046.85 593.151H1040.55V584.762H1046.85V593.151ZM1057.33 579.869H1051.04V571.48H1057.33V579.869ZM1046.85 579.869H1040.55V571.48H1046.85V579.869ZM1057.33 565.887H1051.04V557.499H1057.33V565.887ZM1046.85 565.887H1040.55V557.499H1046.85V565.887ZM1057.33 544.216H1051.04V535.828H1057.33V544.216ZM1046.85 544.216H1040.55V535.828H1046.85V544.216ZM1057.33 530.934H1051.04V522.545H1057.33V530.934ZM1046.85 530.934H1040.55V522.545H1046.85V530.934ZM1046.85 516.954H1040.55V508.565H1046.85V516.954ZM1057.33 516.953H1051.04V508.564H1057.33V516.953ZM1057.33 502.972H1051.04V494.583H1057.33V502.972ZM1046.85 502.972H1040.55V494.583H1046.85V502.972ZM1057.33 488.991H1051.04V480.602H1057.33V488.991ZM1046.85 488.991H1040.55V480.602H1046.85V488.991ZM1057.33 475.009H1051.04V466.621H1057.33V475.009ZM1046.85 475.009H1040.55V466.621H1046.85V475.009ZM1057.33 461.028H1051.04V452.639H1057.33V461.028ZM1046.85 461.028H1040.55V452.639H1046.85V461.028Z" fill="#5C0000"/>
<path d="M1094.73 298.833V635.782H1077.26V442.439L1077.27 442.389C1082.39 425.65 1092.92 373.464 1094.03 298.829L1094.73 298.833ZM1083.2 619.004V630.888H1092.29V619.004H1083.2ZM1083.2 611.314H1092.29V599.43H1083.2V611.314ZM1083.2 591.741H1092.29V579.857H1083.2V591.741ZM1083.2 572.167H1092.29V560.283H1083.2V572.167ZM1083.2 552.593H1092.29V540.709H1083.2V552.593ZM1083.2 533.019H1092.29V521.135H1083.2V533.019ZM1083.2 513.446H1092.29V501.562H1083.2V513.446ZM1083.2 493.872H1092.29V481.988H1083.2V493.872ZM1083.2 474.298H1092.29V462.415H1083.2V474.298Z" fill="#5C0000"/>
<path d="M1094.38 298.839V635.787H1111.86V442.444L1111.84 442.395C1106.73 425.656 1096.2 373.469 1095.08 298.834L1094.38 298.839ZM1105.92 619.009V630.893H1096.83V619.009H1105.92ZM1105.92 611.319H1096.83V599.436H1105.92V611.319ZM1105.92 591.745H1096.83V579.861H1105.92V591.745ZM1105.92 572.172H1096.83V560.288H1105.92V572.172ZM1105.92 552.598H1096.83V540.714H1105.92V552.598ZM1105.92 533.024H1096.83V521.141H1105.92V533.024ZM1105.92 513.45H1096.83V501.566H1105.92V513.45ZM1105.92 493.877H1096.83V481.993H1105.92V493.877ZM1105.92 474.303H1096.83V462.419H1105.92V474.303Z" fill="#5C0000"/>
<path d="M1170.58 214.946V444.239H1165.69V457.52H1170.58V468.006H1165.69V481.289H1170.58V491.775H1165.69V505.056H1170.58V515.542H1165.69V528.825H1170.58V539.311H1165.69V552.593H1170.58V563.079H1152.4V624.596H1170.58V635.782H1136.33V428.16H1144.02V396.003L1144.71 395.967C1144.76 396.453 1144.83 396.834 1144.92 397.1C1144.96 397.233 1145 397.324 1145.04 397.382C1145.04 397.392 1145.05 397.399 1145.05 397.406C1145.08 397.388 1145.11 397.357 1145.16 397.301C1145.32 397.123 1145.51 396.793 1145.75 396.264C1146.7 394.151 1148.09 389.307 1150.03 380.375C1153.89 362.533 1159.89 328.497 1168.83 267.69L1169.88 214.939L1170.58 214.946ZM1151.01 552.593H1160.09V539.311H1151.01V552.593ZM1151.01 528.825H1160.09V515.542H1151.01V528.825ZM1151.01 505.057H1160.09V491.775H1151.01V505.057ZM1151.01 481.289H1160.09V468.006H1151.01V481.289ZM1151.01 457.52H1160.09V444.239H1151.01V457.52Z" fill="#5C0000"/>
<path d="M1170.58 214.953V444.246H1175.47V457.527H1170.58V468.013H1175.47V481.295H1170.58V491.782H1175.47V505.063H1170.58V515.549H1175.47V528.832H1170.58V539.318H1175.47V552.6H1170.58V563.086H1188.76V624.603H1170.58V635.789H1204.83V428.167H1197.14V396.01L1196.45 395.974C1196.4 396.46 1196.33 396.841 1196.25 397.107C1196.2 397.24 1196.16 397.331 1196.12 397.389C1196.12 397.399 1196.11 397.406 1196.11 397.413C1196.08 397.395 1196.05 397.364 1196 397.308C1195.84 397.13 1195.65 396.8 1195.41 396.271C1194.46 394.158 1193.07 389.314 1191.13 380.381C1187.27 362.54 1181.27 328.504 1172.33 267.697L1171.28 214.946L1170.58 214.953ZM1190.15 552.6H1181.07V539.318H1190.15V552.6ZM1190.15 528.832H1181.07V515.549H1190.15V528.832ZM1190.15 505.064H1181.07V491.782H1190.15V505.064ZM1190.15 481.295H1181.07V468.013H1190.15V481.295ZM1190.15 457.527H1181.07V444.246H1190.15V457.527Z" fill="#5C0000"/>
<path d="M1263.56 161.118V398.101H1241.19V409.286H1263.56V418.374H1241.19V429.558H1263.56V438.646H1241.19V449.832H1263.56V458.919H1241.19V470.104H1263.56V479.192H1241.19V490.376H1263.56V499.464H1241.19V510.65H1263.56V519.738H1241.19V530.922H1263.56V638.578H1213.2L1213.22 638.202L1216.72 592.064L1216.74 591.741H1227.55V379.719L1228.05 379.958C1228.9 380.363 1229.92 380.247 1231.14 379.259C1232.37 378.261 1233.76 376.405 1235.24 373.449C1238.21 367.542 1241.52 357.364 1244.87 341.274C1251.57 309.1 1258.38 253.37 1262.86 161.101L1263.56 161.118Z" fill="#5C0000"/>
<path d="M1263.55 161.135V398.118H1285.92V409.303H1263.55V418.391H1285.92V429.575H1263.55V438.663H1285.92V449.849H1263.55V458.937H1285.92V470.121H1263.55V479.209H1285.92V490.394H1263.55V499.481H1285.92V510.667H1263.55V519.755H1285.92V530.939H1263.55V638.595H1313.91L1313.89 638.219L1310.39 592.081L1310.37 591.758H1299.56V379.736L1299.06 379.976C1298.21 380.38 1297.19 380.264 1295.97 379.276C1294.74 378.279 1293.35 376.422 1291.87 373.466C1288.9 367.559 1285.59 357.381 1282.24 341.291C1275.54 309.117 1268.73 253.387 1264.25 161.118L1263.55 161.135Z" fill="#5C0000"/>
<rect y="738.643" width="1512" height="86.7132" fill="url(#paint12_linear_7495_2395)"/>
<path d="M1355.84 166.759C1355.84 162.149 1359.3 158.27 1363.87 157.733L1436.26 149.254C1441.66 148.621 1446.4 152.842 1446.4 158.28V572.52C1446.4 577.539 1442.33 581.608 1437.32 581.608H1364.93C1359.91 581.608 1355.84 577.539 1355.84 572.52V166.759Z" fill="#4C0000"/>
<path d="M1348 163.274C1348 158.667 1351.45 154.789 1356.02 154.248L1428.41 145.699C1433.81 145.061 1438.56 149.283 1438.56 154.724V572.52C1438.56 577.539 1434.49 581.608 1429.47 581.608H1357.09C1352.07 581.608 1348 577.539 1348 572.52V163.274Z" fill="#AD1F26"/>
<g filter="url(#filter0_d_7495_2395)">
<path d="M1420.25 152.725C1426.34 151.887 1431.76 156.62 1431.76 162.767V563.964C1431.76 569.562 1427.23 574.099 1421.63 574.1H1364.93C1359.33 574.1 1354.8 569.562 1354.79 563.964V170.562C1354.79 165.498 1358.53 161.21 1363.55 160.521L1393.14 156.452L1420.25 152.725Z" stroke="#E0A552" stroke-width="2.09719" shape-rendering="crispEdges"/>
</g>
<g filter="url(#filter1_d_7495_2395)">
<path d="M1377.24 246.224H1409.64V267.076H1403.14V250.956H1383.43V267.128H1377.24V246.224ZM1380.94 253.712H1405.01V257.924H1380.94V253.712ZM1380.94 260.784H1406.05V265.516H1380.94V260.784ZM1369.76 230.208H1416.35V235.772H1369.76V230.208ZM1389.78 224.124H1396.28V245.028H1389.78V224.124ZM1387.75 231.508L1392.64 233.432C1391.49 235.2 1390.16 236.881 1388.63 238.476C1387.14 240.071 1385.51 241.561 1383.74 242.948C1382.01 244.335 1380.17 245.583 1378.23 246.692C1376.29 247.801 1374.31 248.737 1372.3 249.5C1372.03 248.98 1371.65 248.408 1371.16 247.784C1370.67 247.16 1370.17 246.553 1369.65 245.964C1369.17 245.375 1368.7 244.872 1368.25 244.456C1370.19 243.832 1372.1 243.069 1373.97 242.168C1375.87 241.267 1377.69 240.261 1379.43 239.152C1381.16 238.008 1382.74 236.795 1384.16 235.512C1385.58 234.195 1386.78 232.86 1387.75 231.508ZM1398.1 231.664C1399.1 232.981 1400.35 234.247 1401.84 235.46C1403.33 236.673 1404.96 237.835 1406.73 238.944C1408.5 240.019 1410.33 241.007 1412.24 241.908C1414.18 242.775 1416.09 243.503 1417.96 244.092C1417.54 244.508 1417.08 245.011 1416.56 245.6C1416.04 246.189 1415.53 246.796 1415.05 247.42C1414.6 248.044 1414.23 248.616 1413.96 249.136C1412.01 248.373 1410.07 247.455 1408.13 246.38C1406.23 245.305 1404.35 244.109 1402.52 242.792C1400.71 241.44 1399.01 240.019 1397.42 238.528C1395.86 237.003 1394.47 235.425 1393.26 233.796L1398.1 231.664ZM1406.42 218.404L1410.78 223.396C1408.36 224.02 1405.71 224.557 1402.83 225.008C1399.95 225.459 1396.97 225.84 1393.88 226.152C1390.83 226.464 1387.77 226.724 1384.68 226.932C1381.59 227.105 1378.6 227.244 1375.68 227.348C1375.58 226.585 1375.37 225.684 1375.06 224.644C1374.75 223.604 1374.44 222.737 1374.12 222.044C1377 221.905 1379.91 221.732 1382.86 221.524C1385.84 221.316 1388.75 221.073 1391.6 220.796C1394.47 220.484 1397.18 220.137 1399.71 219.756C1402.24 219.34 1404.47 218.889 1406.42 218.404ZM1383.38 286.604H1415.93V292.168H1383.38V286.604ZM1381.35 296.068H1417.49V301.684H1381.35V296.068ZM1389.83 281.352H1395.86V300.176H1389.83V281.352ZM1403.09 281.352H1409.22V300.228H1403.09V281.352ZM1390.24 299.708L1395.6 301.528C1394.77 303.469 1393.76 305.376 1392.58 307.248C1391.44 309.12 1390.17 310.853 1388.79 312.448C1387.4 314.008 1385.95 315.325 1384.42 316.4C1384.11 315.915 1383.69 315.395 1383.17 314.84C1382.69 314.251 1382.18 313.679 1381.66 313.124C1381.14 312.535 1380.64 312.067 1380.16 311.72C1381.54 310.853 1382.88 309.779 1384.16 308.496C1385.44 307.213 1386.6 305.827 1387.64 304.336C1388.72 302.811 1389.59 301.268 1390.24 299.708ZM1408.6 299.552C1409.26 301.008 1410.09 302.464 1411.1 303.92C1412.14 305.341 1413.3 306.659 1414.58 307.872C1415.86 309.051 1417.16 310.021 1418.48 310.784C1418.03 311.165 1417.51 311.651 1416.92 312.24C1416.37 312.795 1415.83 313.401 1415.31 314.06C1414.82 314.684 1414.42 315.239 1414.11 315.724C1412.62 314.684 1411.2 313.401 1409.85 311.876C1408.53 310.351 1407.32 308.687 1406.21 306.884C1405.1 305.081 1404.15 303.244 1403.35 301.372L1408.6 299.552ZM1391.02 314.216H1402.78V310.42H1391.8V305.584H1408.44V319.052H1391.02V314.216ZM1388.48 314.216H1394.35V322.796C1394.35 323.593 1394.56 324.096 1394.98 324.304C1395.43 324.512 1396.41 324.616 1397.94 324.616C1398.18 324.616 1398.6 324.616 1399.19 324.616C1399.78 324.616 1400.44 324.616 1401.16 324.616C1401.89 324.616 1402.64 324.616 1403.4 324.616C1404.16 324.616 1404.84 324.616 1405.43 324.616C1406.05 324.616 1406.54 324.616 1406.88 324.616C1407.75 324.616 1408.37 324.512 1408.76 324.304C1409.17 324.061 1409.47 323.559 1409.64 322.796C1409.81 321.999 1409.95 320.82 1410.06 319.26C1410.71 319.745 1411.58 320.196 1412.66 320.612C1413.73 320.993 1414.67 321.253 1415.46 321.392C1415.22 323.749 1414.82 325.552 1414.27 326.8C1413.75 328.048 1412.93 328.897 1411.82 329.348C1410.75 329.833 1409.26 330.076 1407.35 330.076C1407.07 330.076 1406.59 330.076 1405.9 330.076C1405.24 330.076 1404.47 330.076 1403.61 330.076C1402.78 330.076 1401.93 330.076 1401.06 330.076C1400.19 330.076 1399.43 330.076 1398.77 330.076C1398.11 330.076 1397.65 330.076 1397.37 330.076C1395.08 330.076 1393.29 329.868 1392.01 329.452C1390.73 329.036 1389.81 328.308 1389.26 327.268C1388.74 326.228 1388.48 324.789 1388.48 322.952V314.216ZM1371.11 286.188L1374.59 281.508C1375.6 281.889 1376.67 282.375 1377.82 282.964C1378.99 283.519 1380.09 284.108 1381.09 284.732C1382.13 285.356 1382.98 285.963 1383.64 286.552L1380 291.7C1379.41 291.076 1378.61 290.435 1377.61 289.776C1376.6 289.117 1375.53 288.459 1374.38 287.8C1373.24 287.141 1372.15 286.604 1371.11 286.188ZM1368.4 300.228L1371.78 295.496C1372.82 295.877 1373.92 296.328 1375.06 296.848C1376.2 297.368 1377.28 297.94 1378.28 298.564C1379.32 299.153 1380.17 299.725 1380.83 300.28L1377.24 305.48C1376.62 304.891 1375.81 304.284 1374.8 303.66C1373.83 303.001 1372.77 302.377 1371.63 301.788C1370.52 301.199 1369.44 300.679 1368.4 300.228ZM1369.7 325.864C1370.5 324.512 1371.39 322.935 1372.36 321.132C1373.33 319.295 1374.31 317.353 1375.32 315.308C1376.33 313.228 1377.24 311.165 1378.08 309.12L1383.02 312.864C1382.25 314.736 1381.44 316.643 1380.57 318.584C1379.71 320.491 1378.82 322.38 1377.92 324.252C1377.05 326.089 1376.17 327.857 1375.27 329.556L1369.7 325.864ZM1370.28 378.62H1415.78V383.56H1370.28V378.62ZM1379.48 369.78H1401.68V374.148H1379.48V369.78ZM1389.93 376.28H1396.07V387.356C1396.07 388.777 1395.88 389.869 1395.5 390.632C1395.11 391.395 1394.39 391.967 1393.31 392.348C1392.24 392.729 1390.97 392.955 1389.52 393.024C1388.06 393.128 1386.34 393.18 1384.37 393.18C1384.23 392.348 1383.97 391.447 1383.59 390.476C1383.21 389.505 1382.81 388.656 1382.39 387.928C1383.26 387.963 1384.13 387.997 1384.99 388.032C1385.89 388.032 1386.69 388.032 1387.38 388.032C1388.11 388.032 1388.6 388.032 1388.84 388.032C1389.26 387.997 1389.53 387.928 1389.67 387.824C1389.85 387.72 1389.93 387.495 1389.93 387.148V376.28ZM1400.23 369.78H1401.74L1403.04 369.468L1406.52 372.64C1405.38 373.541 1404.11 374.46 1402.72 375.396C1401.37 376.297 1399.97 377.181 1398.51 378.048C1397.09 378.915 1395.67 379.677 1394.25 380.336C1393.94 379.851 1393.49 379.296 1392.9 378.672C1392.31 378.048 1391.82 377.563 1391.44 377.216C1392.51 376.661 1393.61 376.02 1394.72 375.292C1395.83 374.529 1396.87 373.749 1397.84 372.952C1398.84 372.155 1399.64 371.444 1400.23 370.82V369.78ZM1370.28 363.02H1415.88V373.732H1409.69V367.544H1376.15V373.732H1370.28V363.02ZM1373.29 346.64L1380.57 348.096C1380.43 348.512 1379.98 348.789 1379.22 348.928L1380.1 365.048H1374.38L1373.29 346.64ZM1407.25 346.016H1413.18C1413.07 348.165 1412.95 350.419 1412.81 352.776C1412.67 355.099 1412.52 357.352 1412.34 359.536C1412.17 361.72 1411.98 363.627 1411.77 365.256H1405.74C1405.98 363.557 1406.21 361.616 1406.42 359.432C1406.62 357.248 1406.8 354.995 1406.94 352.672C1407.07 350.315 1407.18 348.096 1407.25 346.016ZM1399.92 346.016H1409.54V349.916H1399.92V346.016ZM1383.8 344.56L1386.71 347.94C1385.25 348.599 1383.64 349.205 1381.87 349.76C1380.1 350.315 1378.51 350.748 1377.09 351.06L1374.64 347.888C1375.58 347.645 1376.6 347.333 1377.71 346.952C1378.82 346.571 1379.91 346.172 1380.99 345.756C1382.06 345.34 1383 344.941 1383.8 344.56ZM1376.57 351.736H1386.29V355.584H1376.57V351.736ZM1376.67 357.352H1386.4V361.252H1376.67V357.352ZM1400.12 351.736H1408.91V355.584H1400.12V351.736ZM1399.97 357.352H1408.7V361.252H1399.97V357.352ZM1394.77 344.612L1398.77 345.86C1397.63 347.42 1396.15 348.911 1394.35 350.332C1392.55 351.753 1390.78 352.915 1389.05 353.816C1388.67 353.435 1388.15 352.967 1387.49 352.412C1386.83 351.823 1386.26 351.372 1385.77 351.06C1387.54 350.263 1389.24 349.309 1390.87 348.2C1392.5 347.091 1393.8 345.895 1394.77 344.612ZM1387.07 347.368L1389.88 344.976C1390.92 345.461 1391.99 346.051 1393.1 346.744C1394.21 347.403 1395.25 348.079 1396.22 348.772C1397.23 349.465 1398.06 350.107 1398.72 350.696L1395.7 353.348C1395.11 352.759 1394.33 352.1 1393.36 351.372C1392.39 350.644 1391.35 349.933 1390.24 349.24C1389.17 348.547 1388.11 347.923 1387.07 347.368ZM1395.03 353.348L1399.08 354.544C1397.91 356.243 1396.38 357.837 1394.51 359.328C1392.67 360.819 1390.83 362.049 1389 363.02C1388.65 362.639 1388.13 362.153 1387.44 361.564C1386.78 360.975 1386.21 360.524 1385.72 360.212C1387.56 359.38 1389.31 358.375 1390.97 357.196C1392.67 355.983 1394.02 354.7 1395.03 353.348ZM1387.18 356.208L1390.04 353.816C1391.11 354.336 1392.22 354.943 1393.36 355.636C1394.54 356.329 1395.63 357.04 1396.64 357.768C1397.68 358.496 1398.53 359.172 1399.19 359.796L1396.12 362.5C1395.5 361.876 1394.68 361.2 1393.68 360.472C1392.67 359.709 1391.6 358.964 1390.45 358.236C1389.34 357.473 1388.25 356.797 1387.18 356.208ZM1377.82 416.764H1414.01V422.848H1377.82V416.764ZM1375.63 432.052H1411.98V438.084H1375.63V432.052ZM1369.65 448.588H1416.66V454.672H1369.65V448.588ZM1389.83 407.3H1396.38V451.552H1389.83V407.3ZM1377.82 407.976L1384.26 409.432C1383.54 412.101 1382.63 414.736 1381.56 417.336C1380.49 419.936 1379.32 422.363 1378.08 424.616C1376.83 426.835 1375.53 428.776 1374.18 430.44C1373.76 430.059 1373.21 429.643 1372.51 429.192C1371.85 428.707 1371.16 428.239 1370.43 427.788C1369.7 427.337 1369.08 426.973 1368.56 426.696C1369.95 425.24 1371.21 423.507 1372.36 421.496C1373.53 419.485 1374.57 417.319 1375.48 414.996C1376.41 412.673 1377.19 410.333 1377.82 407.976ZM1380.1 489.28V495.832H1405.79V489.28H1380.1ZM1374.9 485.38H1411.3V499.628H1374.9V485.38ZM1383.8 479.504H1402.2V483.56H1383.8V479.504ZM1390.19 486.68H1395.24V497.652H1390.19V486.68ZM1392.69 475.136C1391.16 476.627 1389.26 478.135 1386.97 479.66C1384.68 481.185 1382.2 482.607 1379.53 483.924C1376.86 485.207 1374.16 486.333 1371.42 487.304C1371.07 486.611 1370.59 485.779 1369.96 484.808C1369.34 483.837 1368.73 483.04 1368.14 482.416C1371.02 481.549 1373.81 480.475 1376.52 479.192C1379.25 477.909 1381.75 476.488 1384 474.928C1386.26 473.368 1388.09 471.825 1389.52 470.3H1395.39C1397.4 472.137 1399.62 473.819 1402.05 475.344C1404.51 476.869 1407.07 478.187 1409.74 479.296C1412.45 480.371 1415.13 481.255 1417.8 481.948C1417.15 482.641 1416.5 483.473 1415.88 484.444C1415.26 485.415 1414.7 486.299 1414.22 487.096C1412.38 486.472 1410.47 485.727 1408.5 484.86C1406.52 483.993 1404.56 483.04 1402.62 482C1400.68 480.925 1398.86 479.816 1397.16 478.672C1395.46 477.493 1393.97 476.315 1392.69 475.136ZM1381.92 490.372L1386.19 489.228C1386.67 490.095 1387.11 491.048 1387.49 492.088C1387.87 493.128 1388.13 494.029 1388.27 494.792L1383.74 496.144C1383.64 495.381 1383.41 494.463 1383.07 493.388C1382.72 492.279 1382.34 491.273 1381.92 490.372ZM1399.08 489.02L1404.28 490.268C1403.69 491.377 1403.14 492.452 1402.62 493.492C1402.13 494.532 1401.67 495.416 1401.22 496.144L1397 494.948C1397.35 494.116 1397.73 493.128 1398.15 491.984C1398.6 490.84 1398.91 489.852 1399.08 489.02ZM1377.76 501.344H1408.55V518.972H1402.1V505.4H1383.9V519.18H1377.76V501.344ZM1381.25 507.48H1404.75V511.536H1381.25V507.48ZM1381.3 513.72H1404.75V517.776H1381.3V513.72Z" fill="white"/>
</g>
<path d="M187.666 93.4234L182.666 98.423L227.333 99.3464C226.11 98.0689 222.799 95.0958 219.333 93.4234C215.866 91.751 196.777 92.7266 187.666 93.4234Z" fill="#AD1F26"/>
<path d="M220.885 247.038L223.551 209.061L226.551 208.016C225.885 220.675 224.351 246.202 223.551 247.038C222.751 247.874 221.44 247.387 220.885 247.038Z" fill="#D88E27"/>
<path d="M265 153.82C265 186.532 236.794 213.05 202 213.05C167.206 213.05 139 186.532 139 153.82C139 121.108 167.206 94.5903 202 94.5903C236.794 94.5903 265 121.108 265 153.82Z" fill="url(#paint13_radial_7495_2395)"/>
<path d="M264.427 153.82C264.427 121.497 236.536 95.1889 202 95.1889C167.464 95.1889 139.573 121.497 139.573 153.82C139.573 186.143 167.464 212.451 202 212.451V213.05L201.186 213.045C166.767 212.635 139 186.276 139 153.82C139 121.108 167.206 94.5903 202 94.5903L202.814 94.595C237.233 95.0049 265 121.364 265 153.82L264.994 154.586C264.558 186.945 236.522 213.05 202 213.05V212.451C236.536 212.451 264.427 186.143 264.427 153.82Z" fill="#660000" fill-opacity="0.35"/>
<path d="M226.333 205.734C226.333 209.775 216.334 213.05 203.999 213.05C191.665 213.05 181.666 209.775 181.666 205.734C181.666 201.693 191.665 198.417 203.999 198.417C216.334 198.417 226.333 201.693 226.333 205.734Z" fill="#B00605"/>
<path d="M174.12 100.666C174.224 100.541 174.405 100.527 174.525 100.636C174.644 100.744 174.657 100.933 174.554 101.058C167.686 109.351 159.321 125.081 158.395 143.356C157.471 161.61 163.967 182.436 186.867 200.967C186.992 201.069 187.014 201.257 186.918 201.388C186.821 201.518 186.641 201.542 186.516 201.441C163.472 182.793 156.889 161.78 157.823 143.324C158.757 124.89 167.187 109.038 174.12 100.666Z" fill="#660000" fill-opacity="0.35"/>
<path d="M203.036 94.293C203.194 94.3096 203.308 94.456 203.293 94.6203C201.312 115.221 198.555 164.03 203.07 196.823L203.291 198.372L203.294 198.432C203.287 198.571 203.188 198.691 203.051 198.713C202.914 198.735 202.786 198.652 202.74 198.521L202.725 198.463L202.504 196.91C197.977 164.04 200.742 115.169 202.723 94.5607C202.739 94.3963 202.879 94.2765 203.036 94.293Z" fill="#660000" fill-opacity="0.35"/>
<path d="M234.498 103.062C234.609 102.975 234.76 102.984 234.86 103.076L234.899 103.121L235.17 103.502C240.861 111.605 246.823 125.944 246.578 143.169C246.329 160.68 239.667 181.153 219.831 201.072C219.717 201.186 219.535 201.182 219.426 201.063C219.316 200.944 219.319 200.754 219.433 200.64C239.165 180.827 245.759 160.504 246.005 143.161C246.248 126.077 240.333 111.865 234.709 103.857L234.441 103.481L234.411 103.429C234.354 103.303 234.388 103.148 234.498 103.062Z" fill="#660000" fill-opacity="0.35"/>
<path d="M158.416 197.229C158.492 197.084 158.665 197.03 158.804 197.109C162.393 199.156 171.843 203.422 181.243 204.348L181.691 204.391L181.748 204.401C181.875 204.44 181.964 204.569 181.952 204.713C181.941 204.857 181.833 204.969 181.701 204.986L181.643 204.987L181.191 204.945C171.686 204.009 162.16 199.704 158.53 197.634C158.391 197.555 158.34 197.374 158.416 197.229Z" fill="#660000" fill-opacity="0.35"/>
<path d="M246.89 195.702C247.013 195.649 247.159 195.691 247.237 195.811C247.325 195.948 247.29 196.134 247.159 196.226C238.041 202.673 228.607 204.291 224.999 204.291C224.841 204.291 224.713 204.157 224.713 203.992C224.713 203.827 224.841 203.693 224.999 203.693C228.503 203.693 237.824 202.105 246.839 195.731L246.89 195.702Z" fill="#660000" fill-opacity="0.35"/>
<path d="M222.334 207.476C222.334 210.555 214.275 213.051 204.334 213.051C194.393 213.051 186.334 210.555 186.334 207.476C186.334 204.397 194.393 201.901 204.334 201.901C214.275 201.901 222.334 204.397 222.334 207.476Z" fill="#E05259"/>
<path d="M178.334 247.195L181.001 209.566L183.001 210.263L182.334 243.014C181.119 247.752 179.161 247.776 178.334 247.195Z" fill="#D88E27"/>
<path d="M206.334 240.227L201.703 200.834C204.37 200.834 210.664 201.182 213.442 200.834L220.334 237.788C215.267 241.969 208.889 241.156 206.334 240.227Z" fill="#D88E27"/>
<path d="M350.65 285.382L355.412 290.156L312.872 291.037C314.037 289.817 317.19 286.979 320.492 285.382C323.793 283.785 341.973 284.716 350.65 285.382Z" fill="#AD1F26"/>
<path d="M319.014 432.059L316.474 395.797L313.617 394.799C314.252 406.887 315.712 431.261 316.474 432.059C317.236 432.858 318.485 432.392 319.014 432.059Z" fill="#D88E27"/>
<path d="M277 343.051C277 374.286 303.863 399.606 337 399.606C370.137 399.606 397 374.286 397 343.051C397 311.817 370.137 286.496 337 286.496C303.863 286.496 277 311.817 277 343.051Z" fill="url(#paint14_radial_7495_2395)"/>
<path d="M277.545 343.051C277.545 312.188 304.108 287.068 337 287.068C369.892 287.068 396.455 312.188 396.455 343.051C396.455 373.914 369.892 399.034 337 399.034V399.606L337.775 399.601C370.555 399.21 397 374.042 397 343.051C397 311.817 370.137 286.496 337 286.496L336.225 286.501C303.445 286.892 277 312.061 277 343.051L277.005 343.782C277.421 374.68 304.122 399.606 337 399.606V399.034C304.108 399.034 277.545 373.914 277.545 343.051Z" fill="#660000" fill-opacity="0.35"/>
<path d="M313.826 392.62C313.826 396.478 323.348 399.606 335.095 399.606C346.842 399.606 356.365 396.478 356.365 392.62C356.365 388.762 346.842 385.634 335.095 385.634C323.348 385.634 313.826 388.762 313.826 392.62Z" fill="#B00605"/>
<path d="M363.552 292.297C363.454 292.178 363.281 292.165 363.167 292.268C363.054 292.372 363.041 292.552 363.14 292.671C369.681 300.59 377.647 315.61 378.528 333.06C379.409 350.489 373.223 370.375 351.413 388.069C351.294 388.166 351.272 388.346 351.364 388.471C351.457 388.595 351.628 388.618 351.747 388.521C373.694 370.715 379.963 350.652 379.073 333.029C378.184 315.427 370.155 300.291 363.552 292.297Z" fill="#660000" fill-opacity="0.35"/>
<path d="M336.012 286.212C335.862 286.228 335.753 286.367 335.768 286.524C337.654 306.195 340.28 352.8 335.98 384.111L335.769 385.59L335.767 385.648C335.773 385.781 335.868 385.895 335.998 385.916C336.128 385.937 336.251 385.858 336.295 385.733L336.308 385.677L336.519 384.194C340.83 352.809 338.197 306.145 336.311 286.468C336.295 286.31 336.162 286.196 336.012 286.212Z" fill="#660000" fill-opacity="0.35"/>
<path d="M306.049 294.585C305.944 294.502 305.8 294.511 305.705 294.599L305.668 294.641L305.41 295.006C299.989 302.743 294.312 316.434 294.545 332.881C294.782 349.601 301.127 369.15 320.019 388.169C320.127 388.278 320.3 388.274 320.404 388.16C320.509 388.047 320.505 387.866 320.397 387.756C301.605 368.838 295.325 349.433 295.09 332.873C294.859 316.561 300.493 302.99 305.849 295.344L306.104 294.985L306.132 294.935C306.187 294.815 306.155 294.668 306.049 294.585Z" fill="#660000" fill-opacity="0.35"/>
<path d="M378.51 384.499C378.437 384.36 378.272 384.31 378.14 384.385C374.722 386.339 365.722 390.413 356.769 391.297L356.343 391.337L356.289 391.347C356.167 391.385 356.083 391.508 356.094 391.645C356.105 391.783 356.207 391.89 356.333 391.906L356.389 391.907L356.819 391.866C365.871 390.973 374.944 386.862 378.401 384.886C378.533 384.811 378.582 384.637 378.51 384.499Z" fill="#660000" fill-opacity="0.35"/>
<path d="M294.246 383.041C294.129 382.99 293.99 383.031 293.916 383.145C293.832 383.276 293.865 383.453 293.99 383.542C302.673 389.698 311.659 391.243 315.095 391.243C315.245 391.243 315.367 391.115 315.367 390.957C315.367 390.799 315.245 390.671 315.095 390.671C311.758 390.671 302.881 389.155 294.295 383.069L294.246 383.041Z" fill="#660000" fill-opacity="0.35"/>
<path d="M317.634 394.283C317.634 397.223 325.309 399.606 334.777 399.606C344.245 399.606 351.92 397.223 351.92 394.283C351.92 391.344 344.245 388.96 334.777 388.96C325.309 388.96 317.634 391.344 317.634 394.283Z" fill="#E05259"/>
<path d="M359.539 432.209L356.999 396.28L355.095 396.945L355.73 428.217C356.886 432.741 358.751 432.763 359.539 432.209Z" fill="#D88E27"/>
<path d="M332.872 425.555L337.283 387.941C334.743 387.941 328.748 388.274 326.103 387.941L319.539 423.226C324.365 427.218 330.439 426.442 332.872 425.555Z" fill="#D88E27"/>
<path d="M1230.87 42.6319L1224.72 48.7604L1279.66 49.8924C1278.16 48.3264 1274.09 44.6819 1269.82 42.6319C1265.56 40.5819 1242.08 41.7777 1230.87 42.6319Z" fill="#AD1F26"/>
<path d="M1271.73 230.934L1275.01 184.382L1278.7 183.101C1277.88 198.618 1276 229.909 1275.01 230.934C1274.03 231.959 1272.42 231.361 1271.73 230.934Z" fill="#D88E27"/>
<path d="M1326 116.667C1326 156.765 1291.3 189.271 1248.5 189.271C1205.7 189.271 1171 156.765 1171 116.667C1171 76.5686 1205.7 44.0625 1248.5 44.0625C1291.3 44.0625 1326 76.5686 1326 116.667Z" fill="url(#paint15_radial_7495_2395)"/>
<path d="M1325.3 116.667C1325.3 77.045 1290.98 44.7962 1248.5 44.7962C1206.02 44.7962 1171.7 77.0449 1171.7 116.667C1171.7 156.289 1206.01 188.537 1248.5 188.537V189.271L1247.5 189.265C1205.16 188.763 1171 156.452 1171 116.667C1171 76.5685 1205.7 44.0625 1248.5 44.0625L1249.5 44.0682C1291.84 44.5707 1326 76.8818 1326 116.667L1325.99 117.605C1325.46 157.271 1290.97 189.271 1248.5 189.271V188.537C1290.98 188.537 1325.3 156.289 1325.3 116.667Z" fill="#660000" fill-opacity="0.35"/>
<path d="M1278.43 180.303C1278.43 185.256 1266.13 189.272 1250.96 189.272C1235.79 189.272 1223.49 185.256 1223.49 180.303C1223.49 175.349 1235.79 171.334 1250.96 171.334C1266.13 171.334 1278.43 175.349 1278.43 180.303Z" fill="#B00605"/>
<path d="M1214.2 51.51C1214.33 51.3569 1214.55 51.3402 1214.7 51.4728C1214.85 51.6054 1214.86 51.837 1214.74 51.9901C1206.29 62.156 1196 81.4378 1194.86 103.84C1193.72 126.216 1201.71 151.744 1229.88 174.46C1230.04 174.584 1230.07 174.815 1229.95 174.975C1229.83 175.135 1229.61 175.165 1229.45 175.041C1201.1 152.182 1193.01 126.424 1194.16 103.801C1195.3 81.2036 1205.67 61.7723 1214.2 51.51Z" fill="#660000" fill-opacity="0.35"/>
<path d="M1249.78 43.6977C1249.97 43.718 1250.11 43.8974 1250.09 44.0989C1247.65 69.3519 1244.26 129.182 1249.82 169.379L1250.09 171.278L1250.09 171.352C1250.08 171.523 1249.96 171.669 1249.79 171.696C1249.63 171.723 1249.47 171.621 1249.41 171.461L1249.39 171.39L1249.12 169.486C1243.55 129.193 1246.95 69.2879 1249.39 44.0258C1249.41 43.8242 1249.58 43.6774 1249.78 43.6977Z" fill="#660000" fill-opacity="0.35"/>
<path d="M1288.48 54.4467C1288.61 54.3403 1288.8 54.3517 1288.92 54.4646L1288.97 54.5191L1289.3 54.9869C1296.31 64.9199 1303.64 82.4961 1303.34 103.611C1303.03 125.076 1294.84 150.172 1270.43 174.588C1270.29 174.729 1270.07 174.724 1269.94 174.578C1269.8 174.432 1269.81 174.199 1269.95 174.059C1294.22 149.772 1302.33 124.86 1302.63 103.6C1302.93 82.6595 1295.66 65.2376 1288.74 55.4218L1288.41 54.9604L1288.37 54.8967C1288.3 54.7424 1288.34 54.5532 1288.48 54.4467Z" fill="#660000" fill-opacity="0.35"/>
<path d="M1194.88 169.877C1194.98 169.699 1195.19 169.634 1195.36 169.731C1199.78 172.239 1211.4 177.469 1222.97 178.605L1223.52 178.656L1223.59 178.669C1223.74 178.717 1223.85 178.875 1223.84 179.052C1223.82 179.228 1223.69 179.365 1223.53 179.386L1223.46 179.387L1222.9 179.335C1211.21 178.188 1199.49 172.911 1195.03 170.374C1194.85 170.277 1194.79 170.055 1194.88 169.877Z" fill="#660000" fill-opacity="0.35"/>
<path d="M1303.72 168.005C1303.87 167.94 1304.05 167.992 1304.15 168.139C1304.26 168.306 1304.22 168.535 1304.05 168.648C1292.84 176.551 1281.23 178.534 1276.79 178.534C1276.6 178.534 1276.44 178.37 1276.44 178.167C1276.44 177.965 1276.6 177.8 1276.79 177.8C1281.1 177.8 1292.57 175.854 1303.66 168.04L1303.72 168.005Z" fill="#660000" fill-opacity="0.35"/>
<path d="M1273.51 182.438C1273.51 186.212 1263.6 189.272 1251.37 189.272C1239.14 189.272 1229.23 186.212 1229.23 182.438C1229.23 178.664 1239.14 175.605 1251.37 175.605C1263.6 175.605 1273.51 178.664 1273.51 182.438Z" fill="#E05259"/>
<path d="M1219.39 231.126L1222.67 185.001L1225.13 185.855L1224.31 226.001C1222.81 231.809 1220.4 231.838 1219.39 231.126Z" fill="#D88E27"/>
<path d="M1253.83 222.584L1248.13 174.296C1251.41 174.296 1259.16 174.723 1262.58 174.296L1271.05 219.595C1264.82 224.72 1256.97 223.723 1253.83 222.584Z" fill="#D88E27"/>
<path d="M720.247 784.047C503.75 808.232 149.875 654.686 0 574.889V840.007H1519.07V659.958C1377.07 645.897 990.868 753.816 720.247 784.047Z" fill="#330008"/>
<defs>
<filter id="filter0_d_7495_2395" x="1349.75" y="147.58" width="87.0664" height="431.569" filterUnits="userSpaceOnUse" color-interpolation-filters="sRGB">
<feFlood flood-opacity="0" result="BackgroundImageFix"/>
<feColorMatrix in="SourceAlpha" type="matrix" values="0 0 0 0 0 0 0 0 0 0 0 0 0 0 0 0 0 0 127 0" result="hardAlpha"/>
<feOffset/>
<feGaussianBlur stdDeviation="2"/>
<feComposite in2="hardAlpha" operator="out"/>
<feColorMatrix type="matrix" values="0 0 0 0 0.878431 0 0 0 0 0.647059 0 0 0 0 0.321569 0 0 0 1 0"/>
<feBlend mode="normal" in2="BackgroundImageFix" result="effect1_dropShadow_7495_2395"/>
<feBlend mode="normal" in="SourceGraphic" in2="effect1_dropShadow_7495_2395" result="shape"/>
</filter>
<filter id="filter1_d_7495_2395" x="1364.14" y="214.404" width="58.3359" height="308.776" filterUnits="userSpaceOnUse" color-interpolation-filters="sRGB">
<feFlood flood-opacity="0" result="BackgroundImageFix"/>
<feColorMatrix in="SourceAlpha" type="matrix" values="0 0 0 0 0 0 0 0 0 0 0 0 0 0 0 0 0 0 127 0" result="hardAlpha"/>
<feOffset/>
<feGaussianBlur stdDeviation="2"/>
<feComposite in2="hardAlpha" operator="out"/>
<feColorMatrix type="matrix" values="0 0 0 0 0.92549 0 0 0 0 0.576471 0 0 0 0 0.576471 0 0 0 1 0"/>
<feBlend mode="normal" in2="BackgroundImageFix" result="effect1_dropShadow_7495_2395"/>
<feBlend mode="normal" in="SourceGraphic" in2="effect1_dropShadow_7495_2395" result="shape"/>
</filter>
<linearGradient id="paint0_linear_7495_2395" x1="756" y1="-0.5" x2="762.636" y2="731.499" gradientUnits="userSpaceOnUse">
<stop stop-color="#330008"/>
<stop offset="1" stop-color="#AD1F26"/>
</linearGradient>
<linearGradient id="paint1_linear_7495_2395" x1="167" y1="394.5" x2="167" y2="606.5" gradientUnits="userSpaceOnUse">
<stop stop-color="#AD721F"/>
<stop offset="1" stop-color="#E05259"/>
</linearGradient>
<linearGradient id="paint2_linear_7495_2395" x1="305.5" y1="528.5" x2="305.5" y2="635.5" gradientUnits="userSpaceOnUse">
<stop stop-color="#AD721F"/>
<stop offset="1" stop-color="#E05259"/>
</linearGradient>
<linearGradient id="paint3_linear_7495_2395" x1="461.5" y1="581.5" x2="461.5" y2="664.5" gradientUnits="userSpaceOnUse">
<stop stop-color="#AD721F"/>
<stop offset="1" stop-color="#E05259"/>
</linearGradient>
<linearGradient id="paint4_linear_7495_2395" x1="764" y1="550.5" x2="764" y2="646.5" gradientUnits="userSpaceOnUse">
<stop stop-color="#AD721F"/>
<stop offset="1" stop-color="#E05259"/>
</linearGradient>
<linearGradient id="paint5_linear_7495_2395" x1="838" y1="522.5" x2="838" y2="646.5" gradientUnits="userSpaceOnUse">
<stop stop-color="#AD721F"/>
<stop offset="1" stop-color="#E05259"/>
</linearGradient>
<linearGradient id="paint6_linear_7495_2395" x1="899" y1="522.5" x2="899" y2="662.5" gradientUnits="userSpaceOnUse">
<stop stop-color="#AD721F"/>
<stop offset="1" stop-color="#E05259"/>
</linearGradient>
<linearGradient id="paint7_linear_7495_2395" x1="950" y1="494.5" x2="950" y2="668.5" gradientUnits="userSpaceOnUse">
<stop stop-color="#AD721F"/>
<stop offset="1" stop-color="#E05259"/>
</linearGradient>
<linearGradient id="paint8_linear_7495_2395" x1="1038.5" y1="448.5" x2="1038.5" y2="668.5" gradientUnits="userSpaceOnUse">
<stop stop-color="#AD721F"/>
<stop offset="1" stop-color="#E05259"/>
</linearGradient>
<linearGradient id="paint9_linear_7495_2395" x1="1095.5" y1="460.5" x2="1095.5" y2="662.5" gradientUnits="userSpaceOnUse">
<stop stop-color="#AD721F"/>
<stop offset="1" stop-color="#E05259"/>
</linearGradient>
<linearGradient id="paint10_linear_7495_2395" x1="1264.5" y1="393.5" x2="1264.5" y2="567.5" gradientUnits="userSpaceOnUse">
<stop stop-color="#AD721F"/>
<stop offset="1" stop-color="#E05259"/>
</linearGradient>
<linearGradient id="paint11_linear_7495_2395" x1="1172" y1="440.5" x2="1172" y2="662.5" gradientUnits="userSpaceOnUse">
<stop stop-color="#AD721F"/>
<stop offset="1" stop-color="#E05259"/>
</linearGradient>
<linearGradient id="paint12_linear_7495_2395" x1="756" y1="738.643" x2="756" y2="825.356" gradientUnits="userSpaceOnUse">
<stop stop-color="#AD1F26"/>
<stop offset="1" stop-color="#4C0000"/>
</linearGradient>
<radialGradient id="paint13_radial_7495_2395" cx="0" cy="0" r="1" gradientUnits="userSpaceOnUse" gradientTransform="translate(202 153.82) rotate(89.9999) scale(59.0927 56.4843)">
<stop stop-color="#E0A552"/>
<stop offset="1" stop-color="#AD1F26"/>
</radialGradient>
<radialGradient id="paint14_radial_7495_2395" cx="0" cy="0" r="1" gradientUnits="userSpaceOnUse" gradientTransform="translate(337 343.051) rotate(90.0001) scale(56.424 53.7946)">
<stop stop-color="#E0A552"/>
<stop offset="1" stop-color="#AD1F26"/>
</radialGradient>
<radialGradient id="paint15_radial_7495_2395" cx="0" cy="0" r="1" gradientUnits="userSpaceOnUse" gradientTransform="translate(1248.5 116.667) rotate(89.9999) scale(72.4362 69.4847)">
<stop stop-color="#E0A552"/>
<stop offset="1" stop-color="#AD1F26"/>
</radialGradient>
</defs>
</svg>
