<svg width="27" height="23" viewBox="0 0 27 23" fill="none" xmlns="http://www.w3.org/2000/svg">
<g filter="url(#filter0_d_8125_1128)">
<path d="M4 18.5739V14.7386C4 13.5739 4.20597 12.3381 4.6179 11.0312C5.04403 9.71023 5.65483 8.43892 6.45028 7.21733C7.25994 5.98153 8.23295 4.90909 9.36932 4L12.0966 6.21591C11.2017 7.49432 10.4205 8.82955 9.75284 10.2216C9.09943 11.5994 8.77273 13.0767 8.77273 14.6534V18.5739H4ZM14.9091 18.5739V14.7386C14.9091 13.5739 15.1151 12.3381 15.527 11.0312C15.9531 9.71023 16.5639 8.43892 17.3594 7.21733C18.169 5.98153 19.142 4.90909 20.2784 4L23.0057 6.21591C22.1108 7.49432 21.3295 8.82955 20.6619 10.2216C20.0085 11.5994 19.6818 13.0767 19.6818 14.6534V18.5739H14.9091Z" fill="#E05259"/>
</g>
<defs>
<filter id="filter0_d_8125_1128" x="0" y="0" width="27.0059" height="22.5737" filterUnits="userSpaceOnUse" color-interpolation-filters="sRGB">
<feFlood flood-opacity="0" result="BackgroundImageFix"/>
<feColorMatrix in="SourceAlpha" type="matrix" values="0 0 0 0 0 0 0 0 0 0 0 0 0 0 0 0 0 0 127 0" result="hardAlpha"/>
<feOffset/>
<feGaussianBlur stdDeviation="2"/>
<feComposite in2="hardAlpha" operator="out"/>
<feColorMatrix type="matrix" values="0 0 0 0 0.878431 0 0 0 0 0.321569 0 0 0 0 0.34902 0 0 0 1 0"/>
<feBlend mode="normal" in2="BackgroundImageFix" result="effect1_dropShadow_8125_1128"/>
<feBlend mode="normal" in="SourceGraphic" in2="effect1_dropShadow_8125_1128" result="shape"/>
</filter>
</defs>
</svg>
