<svg width="175" height="121" viewBox="0 0 175 121" fill="none" xmlns="http://www.w3.org/2000/svg">
<path d="M155.113 48.2604C155.546 50.8076 155.601 53.409 155.221 56.0104C154.3 62.3513 151.102 67.6625 146.116 71.0227C142.756 73.2989 138.637 74.3828 134.518 74.3828C129.37 74.3828 124.113 72.6485 120.265 69.2342C115.929 65.4405 113.87 59.3163 115.116 54.0051C116.2 49.4527 119.452 46.2551 124.275 44.9544C130.779 43.2202 136.144 44.3041 138.908 47.881C141.889 51.6747 140.859 57.2569 138.366 60.8338C137.662 61.8093 136.307 62.0261 135.331 61.3758C134.356 60.6712 134.139 59.3163 134.789 58.3408C136.361 56.173 137.12 52.6503 135.44 50.5908C133.001 47.5017 127.094 48.7482 125.305 49.2359C121.186 50.3198 119.723 53.0296 119.235 55.0891C118.368 58.8286 119.94 63.3268 123.029 66.0366C128.448 70.8059 137.716 71.4562 143.623 67.4457C147.525 64.7901 150.127 60.5086 150.831 55.4142C151.265 52.4877 151.048 49.5611 150.289 46.7971C149.531 44.1415 148.284 41.6485 146.55 39.5349C144.599 37.1502 141.51 35.687 138.15 35.4702C134.789 35.2534 131.538 36.3915 129.261 38.5051C128.394 39.3181 127.039 39.3181 126.172 38.3968C125.359 37.5296 125.359 36.1747 126.281 35.3076C128.286 33.4107 130.833 32.11 133.597 31.4597C132.947 27.2324 131.429 24.1432 129.045 22.3548C127.094 20.8373 124.926 20.5121 123.625 20.4579C123.354 21.0541 123.029 21.6502 122.595 22.1922C120.428 25.1188 117.176 26.4737 113.599 25.9317C110.184 25.4439 107.366 23.2761 106.391 20.4579C105.524 18.0191 106.174 15.4719 108.179 13.2499C108.992 12.3828 110.347 12.3285 111.268 13.1415C112.136 13.9544 112.19 15.3093 111.377 16.2307C110.455 17.2062 110.184 18.1275 110.455 19.0488C110.889 20.2953 112.461 21.3793 114.195 21.6502C115.333 21.8128 117.447 21.7586 119.073 19.5908C120.807 17.2062 120.427 13.4125 118.151 10.1065C115.712 6.5838 110.726 3.44043 104.223 5.28309C94.5219 8.04708 93.9799 20.0244 94.0883 24.0891C94.1425 24.4142 94.1967 24.7394 94.1967 25.0646C94.1967 25.3356 94.1967 25.6065 94.1425 25.8775C94.1425 25.8775 94.1425 25.8775 94.1425 25.9317C93.8174 28.9667 91.4327 31.8391 86.3925 32.11C85.2002 32.1642 84.1705 31.2429 84.1163 30.0506C84.0621 28.8583 84.9834 27.8286 86.1757 27.7744C88.2893 27.666 89.5901 26.853 89.8069 25.6065C89.7527 25.2272 89.7526 24.8478 89.7526 24.4684C89.3732 23.1135 87.91 21.6502 85.2002 21.6502C80.702 21.6502 77.5044 29.617 76.3121 33.6817C78.7509 36.2289 80.4852 39.5891 81.2439 43.4912C83.0866 52.7586 79.3471 65.0611 68.7247 70.7517C63.4677 73.5699 57.8855 73.1363 53.4414 69.5594C48.347 65.4947 45.6914 58.2324 47.2631 52.6502C48.347 48.694 51.382 46.1468 55.7719 45.5506C59.0236 45.117 63.5761 46.2551 65.6897 49.2901C67.0988 51.2954 67.2071 53.7884 65.9064 56.2272C65.3645 57.3111 64.0638 57.6905 62.9799 57.1485C61.896 56.6066 61.5166 55.3059 62.0586 54.2219C62.7631 52.9212 62.4379 52.1625 62.1127 51.7831C61.1914 50.4824 58.4816 49.5611 56.3138 49.8321C53.7124 50.1572 52.0323 51.5121 51.4362 53.7884C50.3523 57.6363 52.4659 63.1643 56.1512 66.145C58.319 67.8793 61.9501 69.451 66.7194 66.9038C75.3907 62.2429 78.4799 51.7831 77.0166 44.3041C75.6075 37.3128 70.6757 32.923 63.4676 32.1642C50.4064 30.8635 45.583 37.5296 35.0148 52.2167C34.2561 53.3006 33.4432 54.4387 32.576 55.5768C23.7421 67.7167 13.1197 67.4457 6.94141 65.8198C10.1932 71.0227 18.3767 78.5559 37.3994 73.9492C37.9956 73.7866 38.5918 73.895 39.1337 74.2744C39.6215 74.5996 40.0009 75.1415 40.0551 75.7377C40.0551 75.8461 41.7351 86.4143 50.0271 91.7255C55.5551 95.3024 62.8715 95.7901 71.7054 93.2971C71.868 93.2429 72.0306 93.243 72.1932 93.243C72.3558 91.9964 72.5726 90.9125 72.7894 90.0996C74.1443 84.5174 80.6477 75.6293 89.4275 73.2989C93.8173 72.1066 100.483 72.215 107.095 79.3146C112.569 85.1678 111.485 90.0996 110.293 92.5384C107.583 98.1206 99.9957 100.993 94.1967 100.559C89.2107 100.18 85.6337 97.5786 84.333 93.4055C84.0079 92.2674 84.6582 91.0751 85.7964 90.6957C86.9345 90.3706 88.1268 91.0209 88.5062 92.159C89.4817 95.3566 92.6792 96.1153 94.5219 96.2237C99.2911 96.6031 104.711 94.0559 106.337 90.6415C107.529 88.1485 106.716 85.3304 103.844 82.2954C99.7247 77.8513 95.1722 76.2797 90.403 77.5262C83.3576 79.3688 77.938 86.7936 76.854 91.1835C76.0411 94.4894 74.6862 102.781 79.2387 108.906C82.382 113.187 87.91 115.626 95.66 116.168C113.219 117.36 121.674 107.225 124.221 103.323C123.517 102.619 122.975 101.914 122.595 101.264C120.265 97.416 120.482 91.9422 123.083 87.3356C125.359 83.2709 128.99 80.8321 132.73 80.8321C139.342 80.8321 141.781 84.6258 141.889 87.8775C141.997 91.7796 138.908 95.0856 135.06 95.3024C133.868 95.3566 132.838 94.4353 132.784 93.243C132.73 92.0506 133.651 91.0209 134.844 90.9667C136.578 90.8583 137.608 89.3408 137.608 87.9859C137.553 86.1975 135.765 85.1678 132.784 85.1678C130.67 85.1678 128.449 86.7936 126.931 89.4492C125.088 92.701 124.872 96.5489 126.389 98.9877C127.907 101.481 131.158 102.727 135.819 102.619C143.081 102.402 148.393 98.8251 151.59 91.9422C154.083 86.631 154.3 81.3741 154.3 81.3199C154.354 80.1818 155.33 79.2604 156.468 79.2604C160.261 79.2604 163.567 77.7971 166.006 75.0873C169.312 71.402 170.721 65.6572 170.017 58.8828C169.095 49.8321 159.72 48.423 155.113 48.2604Z" fill="#F4BB3A"/>
<path d="M153.975 43.8703C153.053 41.2689 151.699 38.8301 149.964 36.7164C147.255 33.4105 143.027 31.3511 138.475 31.0801C138.312 31.0801 138.15 31.0801 138.041 31.0801C137.228 25.5521 135.115 21.4332 131.755 18.886C129.262 16.9892 126.606 16.3388 124.655 16.1762C124.709 13.358 123.734 10.3773 121.891 7.66747C118.585 2.89824 111.919 -1.32904 103.193 1.16397C94.522 3.60279 91.1619 11.6238 90.1863 18.5608C88.8314 17.8021 87.2597 17.3685 85.3629 17.3685C78.3174 17.3685 74.4695 25.9857 72.8437 30.8091C70.3507 29.2916 67.3699 28.3161 64.064 27.9367C48.5098 26.365 42.494 34.657 31.6548 49.7234C30.8961 50.8074 30.0831 51.9455 29.216 53.0836C18.2684 68.15 4.6653 60.5084 4.12334 60.1832C3.3646 59.7497 2.44326 59.8039 1.73871 60.2916C1.03416 60.8336 0.70899 61.7007 0.925773 62.5679C0.979969 62.8388 2.44327 68.6378 7.91705 73.407C12.6863 77.5801 21.4118 81.7532 36.424 78.664C37.4538 82.5661 40.3803 90.5329 47.8052 95.3563C51.7615 97.9035 56.4223 99.2043 61.6793 99.2043C64.9311 99.2043 68.3454 98.7165 72.0307 97.741C72.0307 102.022 72.8979 107.063 76.0412 111.398C79.9975 116.764 86.6094 119.799 95.6601 120.395C96.744 120.449 97.7738 120.503 98.7493 120.503C116.417 120.503 125.197 110.043 128.123 105.599C129.966 106.358 132.296 106.9 135.223 106.9C135.494 106.9 135.765 106.9 136.09 106.9C144.978 106.629 151.753 102.077 155.655 93.7305C157.552 89.6658 158.311 85.7095 158.581 83.4333C162.755 82.9997 166.548 81.0486 169.366 77.9595C173.485 73.3528 175.328 66.4158 174.461 58.3948C173.106 46.6343 161.345 43.7619 153.975 43.8703ZM166.115 75.1413C163.676 77.8511 160.37 79.3144 156.576 79.3144C155.438 79.3144 154.463 80.2357 154.408 81.3738C154.408 81.428 154.192 86.685 151.699 91.9962C148.501 98.8249 143.19 102.402 135.928 102.673C131.321 102.835 128.015 101.589 126.498 99.0417C124.98 96.5487 125.197 92.7007 127.04 89.5032C128.557 86.8476 130.779 85.2217 132.893 85.2217C135.873 85.2217 137.662 86.2514 137.716 88.0399C137.77 89.3948 136.741 90.9123 134.952 91.0207C133.76 91.0749 132.838 92.1046 132.893 93.2969C132.947 94.4892 133.977 95.4105 135.169 95.3563C139.071 95.1396 142.106 91.8336 141.998 87.9315C141.889 84.6798 139.45 80.8861 132.838 80.8861C129.099 80.8861 125.522 83.3249 123.192 87.3895C120.59 92.0504 120.373 97.5242 122.704 101.318C123.137 102.022 123.679 102.727 124.33 103.377C121.728 107.279 113.328 117.36 95.7685 116.222C88.0185 115.68 82.4905 113.241 79.3472 108.96C74.8489 102.835 76.2038 94.4892 76.9625 91.2375C78.0465 86.8476 83.466 79.477 90.5115 77.5801C95.2807 76.3336 99.779 77.9053 103.952 82.3493C106.77 85.3843 107.637 88.2025 106.445 90.6955C104.819 94.1098 99.3996 96.657 94.6304 96.2777C92.7877 96.1151 89.5902 95.4105 88.6146 92.213C88.2895 91.0749 87.043 90.4245 85.9049 90.7497C84.7667 91.0749 84.1164 92.3214 84.4416 93.4595C85.6881 97.6326 89.3192 100.234 94.3052 100.613C100.104 101.047 107.692 98.1745 110.401 92.5924C111.54 90.1535 112.678 85.2759 107.204 79.3686C100.592 72.2689 93.9259 72.2147 89.536 73.3528C80.7563 75.6833 74.2527 84.6256 72.8979 90.1535C72.6811 90.9665 72.4643 92.0504 72.3017 93.2969C72.1391 93.2969 71.9765 93.3511 71.8139 93.3511C62.9258 95.8441 55.6636 95.3563 50.1356 91.7794C41.8436 86.4682 40.1636 75.9 40.1636 75.7916C40.0552 75.1955 39.73 74.6535 39.2422 74.3284C38.7545 74.0032 38.1041 73.8948 37.508 74.0032C18.4852 78.6098 10.3558 71.1308 7.0499 65.8738C13.2282 67.4455 23.8506 67.7707 32.6846 55.6308C33.5517 54.4927 34.3104 53.3546 35.1234 52.2707C45.6916 37.6378 50.515 30.9175 63.5762 32.2182C70.7842 32.9227 75.7161 37.3668 77.1252 44.3581C78.5884 51.8371 75.4993 62.2969 66.8279 66.9577C62.0587 69.5049 58.4818 67.9332 56.2598 66.199C52.5744 63.2724 50.4608 57.7444 51.5447 53.8423C52.195 51.5661 53.8209 50.2654 56.4223 49.886C58.5901 49.6151 61.3 50.4822 62.2213 51.8371C62.4923 52.2706 62.8175 52.9752 62.1671 54.2759C61.6252 55.3598 62.0045 56.6605 63.0884 57.2025C64.1723 57.7444 65.473 57.3651 66.015 56.2811C67.3157 53.8423 67.2073 51.3493 65.7982 49.3441C63.6846 46.3091 59.0779 45.171 55.8803 45.6046C51.4905 46.2007 48.5097 48.6937 47.3716 52.7042C45.7999 58.2864 48.5097 65.5486 53.55 69.6133C58.0482 73.1902 63.6304 73.6238 68.8332 70.8056C79.4555 65.1151 83.1408 52.8126 81.3524 43.5451C80.5936 39.643 78.8594 36.2829 76.4206 33.7357C77.5587 29.671 80.8105 21.7042 85.3087 21.7042C87.9643 21.7042 89.4276 23.1675 89.8612 24.5224C89.8612 24.9017 89.9154 25.2811 89.9154 25.6605C89.6986 26.907 88.3437 27.6657 86.2843 27.8283C85.0919 27.8825 84.1706 28.9122 84.2248 30.1046C84.279 31.2969 85.3087 32.2182 86.501 32.164C91.5412 31.893 93.9258 28.9664 94.251 25.9857C94.251 25.9857 94.251 25.9857 94.251 25.9315C94.251 25.6605 94.3052 25.3895 94.3052 25.1185C94.3052 24.7934 94.251 24.4682 94.1968 24.143C94.0884 20.0783 94.6846 8.10104 104.331 5.33705C110.889 3.49439 115.821 6.58355 118.26 10.1605C120.536 13.4664 120.915 17.2601 119.181 19.6447C117.555 21.8126 115.442 21.8668 114.303 21.7042C112.569 21.4332 110.998 20.3493 110.564 19.1028C110.239 18.2357 110.564 17.2601 111.485 16.2846C112.298 15.4175 112.244 14.0084 111.377 13.1954C110.51 12.3825 109.101 12.4367 108.288 13.3038C106.283 15.4717 105.632 18.0189 106.499 20.5119C107.475 23.3301 110.293 25.4437 113.707 25.9857C117.284 26.5276 120.536 25.1727 122.704 22.2462C123.083 21.7042 123.463 21.108 123.734 20.5119C125.034 20.5661 127.202 20.8913 129.153 22.4087C131.538 24.2514 133.055 27.2864 133.706 31.5136C130.942 32.164 128.394 33.4647 126.389 35.3615C125.522 36.1745 125.468 37.5836 126.281 38.4507C127.094 39.3178 128.503 39.372 129.37 38.5591C131.646 36.3913 134.844 35.3074 138.258 35.5241C141.618 35.7409 144.707 37.2042 146.658 39.5888C148.393 41.6483 149.639 44.1413 150.398 46.8511C151.157 49.6151 151.373 52.5958 150.94 55.4682C150.235 60.5626 147.634 64.8441 143.732 67.4997C137.825 71.5102 128.611 70.8598 123.137 66.0906C119.994 63.3808 118.477 58.8283 119.344 55.143C119.831 53.0836 121.295 50.3738 125.414 49.2899C127.148 48.8021 133.109 47.5556 135.548 50.6448C137.174 52.7584 136.415 56.2269 134.898 58.3948C134.193 59.3703 134.41 60.7252 135.44 61.4297C136.415 62.1343 137.77 61.8633 138.475 60.8878C141.022 57.3109 141.998 51.7287 139.017 47.935C136.253 44.3581 130.887 43.3283 124.384 45.0084C119.56 46.2549 116.309 49.5067 115.225 54.0591C113.978 59.3703 116.038 65.4944 120.373 69.2881C124.221 72.6483 129.478 74.4368 134.627 74.4368C138.746 74.4368 142.865 73.2986 146.225 71.0766C151.157 67.7165 154.408 62.4053 155.33 56.0644C155.709 53.463 155.655 50.8615 155.221 48.3143C159.828 48.4769 169.204 49.886 170.179 58.9909C170.83 65.657 169.421 71.4018 166.115 75.1413Z" fill="#910E15"/>
</svg>
