<svg width="18" height="18" viewBox="0 0 18 18" fill="none" xmlns="http://www.w3.org/2000/svg">
<path d="M8.61127 1.09326C5.46451 1.09326 2.9043 3.38244 2.9043 6.19608C2.9043 7.04073 3.14048 7.87821 3.58947 8.62102L8.29919 16.2372C8.36188 16.3388 8.48136 16.4017 8.61127 16.4017C8.74118 16.4017 8.86066 16.3388 8.92336 16.2372L13.6348 8.61851C14.0821 7.87821 14.3182 7.0407 14.3182 6.19605C14.3182 3.38244 11.758 1.09326 8.61127 1.09326ZM8.61127 9.47644C7.03789 9.47644 5.93719 8.14962 5.93719 6.74281C5.93719 5.33599 7.03789 4.00917 8.61127 4.00917C10.1847 4.00917 11.2854 5.33599 11.2854 6.74281C11.2854 8.14962 10.1847 9.47644 8.61127 9.47644Z" fill="white"/>
</svg>
