<svg width="68" height="68" viewBox="0 0 68 68" fill="none" xmlns="http://www.w3.org/2000/svg">
<path d="M3.16084 35.5389L25.2181 41.6739C25.4814 41.7499 25.7211 41.8913 25.9149 42.0851C26.1087 42.2789 26.2501 42.5186 26.3261 42.7819L32.4611 64.8392C32.5567 65.1736 32.7585 65.4678 33.0362 65.6772C33.3139 65.8867 33.6522 66 34 66C34.3478 66 34.6861 65.8867 34.9638 65.6772C35.2415 65.4678 35.4433 65.1736 35.5389 64.8392L41.6739 42.7819C41.7499 42.5186 41.8913 42.2789 42.0851 42.0851C42.2789 41.8913 42.5186 41.7499 42.7819 41.6739L64.8392 35.5389C65.1736 35.4433 65.4678 35.2415 65.6772 34.9638C65.8867 34.6861 66 34.3478 66 34C66 33.6522 65.8867 33.3139 65.6772 33.0362C65.4678 32.7585 65.1736 32.5567 64.8392 32.4611L42.7819 26.3261C42.5186 26.2501 42.2789 26.1087 42.0851 25.9149C41.8913 25.7211 41.7499 25.4814 41.6739 25.2181L35.5389 3.16084C35.4433 2.82641 35.2415 2.53221 34.9638 2.32276C34.6861 2.1133 34.3478 2 34 2C33.6522 2 33.3139 2.1133 33.0362 2.32276C32.7585 2.53221 32.5567 2.82641 32.4611 3.16084L26.3261 25.2181C26.2501 25.4814 26.1087 25.7211 25.9149 25.9149C25.7211 26.1087 25.4814 26.2501 25.2181 26.3261L3.16084 32.4611C2.82641 32.5567 2.53221 32.7585 2.32276 33.0362C2.1133 33.3139 2 33.6522 2 34C2 34.3478 2.1133 34.6861 2.32276 34.9638C2.53221 35.2415 2.82641 35.4433 3.16084 35.5389Z" fill="url(#paint0_linear_8034_817)" stroke="#E0B552" stroke-width="4" stroke-linecap="round" stroke-linejoin="round"/>
<defs>
<linearGradient id="paint0_linear_8034_817" x1="20.027" y1="9.80881" x2="47.973" y2="58.1912" gradientUnits="userSpaceOnUse">
<stop stop-color="#E0C852"/>
<stop offset="1" stop-color="#E0A552"/>
</linearGradient>
</defs>
</svg>
