<svg width="186" height="118" viewBox="0 0 186 118" fill="none" xmlns="http://www.w3.org/2000/svg">
<path d="M1.99999 2L21.1777 2L21.1777 34.013L2 34.013L2 18.1948L48.6281 18.1948L48.6281 34.013L28.6983 34.013L28.6983 2L142.636 2L142.636 34.013L124.587 34.013L124.587 18.1948L166.326 18.1948L166.326 34.013M184 118L184 42.2987L166.702 42.2987M166.702 42.2987L149.405 42.2987L149.405 61.5065L166.326 61.5065L166.326 34.013M166.702 42.2987L166.326 34.013M184 34.013L184 2L149.405 2L149.405 34.013L184 34.013Z" stroke="#C10800" stroke-width="3"/>
</svg>
