<svg width="87" height="82" viewBox="0 0 87 82" fill="none" xmlns="http://www.w3.org/2000/svg">
<g opacity="0.9">
<path d="M32 19.6189C32.5 27.1189 40.1667 36.6189 43 38.1189C39.4 31.3189 41.5 25.6189 43 23.6189C41.4 28.0189 43.6667 35.1189 45 38.1189C45 35.3189 46 32.6189 46.5 31.6189C51.3 26.4189 52.8334 21.4522 53 19.6189C52.6 11.2189 48.5 3.45223 46.5 0.618896C35.3 5.4189 31.5 12.1189 32 19.6189Z" fill="#D4B582" stroke="#DC9735"/>
<path d="M63.0287 23.9634C55.8368 26.1488 48.3197 35.7675 47.5002 38.8669C53.3084 33.8206 59.3359 34.5753 61.6236 35.5834C56.9756 35.0214 50.5733 38.8369 47.9531 40.815C50.6804 40.1809 53.5367 40.5435 54.624 40.8041C60.7759 44.3019 65.9607 44.6707 67.7842 44.4178C75.8754 42.126 82.5118 36.3738 84.8187 33.7841C77.6071 23.962 70.2206 21.778 63.0287 23.9634Z" fill="#D4B582" stroke="#DC9735"/>
<path d="M65.9251 55.3293C62.2401 48.7779 51.2266 43.5121 48.0234 43.3803C54.2035 47.9635 54.7665 54.0119 54.2754 56.4632C53.8219 51.8033 48.7154 46.3746 46.2188 44.2427C47.4261 46.769 47.688 49.6363 47.6681 50.7542C45.5793 57.5156 46.3373 62.658 46.9775 64.384C50.9603 71.7906 58.0084 77.0304 61.0346 78.7245C69.0703 69.5644 69.61 61.8807 65.9251 55.3293Z" fill="#D4B582" stroke="#DC9735"/>
<path d="M41.0422 65.7131C44.8345 59.2232 43.815 47.0581 42.3105 44.2272C41.4773 51.8761 36.5419 55.4175 34.1783 56.2321C37.9707 53.4866 40.076 46.3371 40.6546 43.1055C39.0843 45.4237 36.7421 47.0983 35.7673 47.6458C28.8769 49.259 24.8219 52.5111 23.6557 53.9355C19.2759 61.1144 18.3145 69.844 18.3813 73.3115C30.3461 75.6188 37.2499 72.2029 41.0422 65.7131Z" fill="#D4B582" stroke="#DC9735"/>
<path d="M18.0382 45.5503C25.3113 47.4482 36.7485 43.1799 39.0676 40.9664C31.4781 42.2308 26.7349 38.4358 25.312 36.3802C28.9801 39.2897 36.4325 39.3851 39.7002 39.0691C37.044 38.1835 34.7989 36.3808 34.0084 35.5902C30.5935 29.3919 26.3668 26.3664 24.6803 25.6284C16.585 23.351 7.92031 24.784 4.59985 25.7851C5.61095 37.9284 10.7651 43.6524 18.0382 45.5503Z" fill="#D4B582" stroke="#DC9735"/>
</g>
</svg>
