<svg width="87" height="82" viewBox="0 0 87 82" fill="none" xmlns="http://www.w3.org/2000/svg">
<g opacity="0.2">
<path d="M32 20C32.5 27.5 40.1667 37 43 38.5C39.4 31.7 41.5 26 43 24C41.4 28.4 43.6667 35.5 45 38.5C45 35.7 46 33 46.5 32C51.3 26.8 52.8334 21.8333 53 20C52.6 11.6 48.5 3.83333 46.5 1C35.3 5.8 31.5 12.5 32 20Z" fill="#F2CC8D" stroke="#DC9735"/>
<path d="M63.0287 24.3445C55.8368 26.5299 48.3197 36.1486 47.5002 39.2481C53.3084 34.2017 59.3359 34.9564 61.6236 35.9645C56.9756 35.4025 50.5733 39.218 47.9531 41.1961C50.6804 40.562 53.5367 40.9246 54.624 41.1852C60.7759 44.683 65.9607 45.0518 67.7842 44.7989C75.8754 42.5071 82.5118 36.7549 84.8187 34.1652C77.6071 24.3431 70.2206 22.1591 63.0287 24.3445Z" fill="#F2CC8D" stroke="#DC9735"/>
<path d="M65.9243 55.7104C62.2394 49.159 51.2258 43.8932 48.0226 43.7614C54.2028 48.3446 54.7657 54.393 54.2747 56.8443C53.8211 52.1844 48.7146 46.7557 46.2181 44.6238C47.4254 47.1501 47.6873 50.0174 47.6673 51.1353C45.5786 57.8967 46.3366 63.0391 46.9767 64.7651C50.9595 72.1717 58.0076 77.4115 61.0338 79.1056C69.0696 69.9455 69.6093 62.2618 65.9243 55.7104Z" fill="#F2CC8D" stroke="#DC9735"/>
<path d="M41.0422 66.0942C44.8345 59.6043 43.815 47.4392 42.3105 44.6083C41.4773 52.2572 36.5419 55.7986 34.1783 56.6132C37.9707 53.8677 40.076 46.7182 40.6546 43.4866C39.0843 45.8048 36.7421 47.4794 35.7673 48.0269C28.8769 49.6401 24.8219 52.8922 23.6557 54.3166C19.2759 61.4955 18.3145 70.2252 18.3813 73.6926C30.3461 75.9999 37.2499 72.584 41.0422 66.0942Z" fill="#F2CC8D" stroke="#DC9735"/>
<path d="M18.0382 45.9314C25.3113 47.8293 36.7485 43.561 39.0676 41.3475C31.4781 42.6119 26.7349 38.8169 25.312 36.7613C28.9801 39.6708 36.4325 39.7662 39.7002 39.4502C37.044 38.5646 34.7989 36.7619 34.0084 35.9713C30.5935 29.773 26.3668 26.7475 24.6803 26.0095C16.585 23.7321 7.92031 25.1651 4.59985 26.1662C5.61095 38.3095 10.7651 44.0335 18.0382 45.9314Z" fill="#F2CC8D" stroke="#DC9735"/>
</g>
</svg>
